%TF.GenerationSoftware,KiCad,Pcbnew,9.0.2*%
%TF.CreationDate,2025-06-13T21:11:19+02:00*%
%TF.ProjectId,quacken_pcb,71756163-6b65-46e5-9f70-63622e6b6963,v1.0.0*%
%TF.SameCoordinates,Original*%
%TF.FileFunction,Legend,Bot*%
%TF.FilePolarity,Positive*%
%FSLAX46Y46*%
G04 Gerber Fmt 4.6, Leading zero omitted, Abs format (unit mm)*
G04 Created by KiCad (PCBNEW 9.0.2) date 2025-06-13 21:11:19*
%MOMM*%
%LPD*%
G01*
G04 APERTURE LIST*
%ADD10C,0.000000*%
%ADD11R,1.752600X1.752600*%
%ADD12C,1.752600*%
G04 APERTURE END LIST*
D10*
%TO.C,G\u002A\u002A\u002A*%
G36*
X196212667Y-128351469D02*
G01*
X196164323Y-128560538D01*
X196072296Y-128893179D01*
X195941845Y-129332059D01*
X195778231Y-129859847D01*
X195586712Y-130459211D01*
X195372549Y-131112820D01*
X195141002Y-131803341D01*
X195080879Y-131986254D01*
X194989647Y-132292752D01*
X194935290Y-132517942D01*
X194927958Y-132622783D01*
X194993115Y-132679297D01*
X195179146Y-132823585D01*
X195466968Y-133040463D01*
X195837992Y-133316045D01*
X196273627Y-133636444D01*
X196755284Y-133987775D01*
X198540727Y-135284999D01*
X196268141Y-135327333D01*
X193995555Y-135369666D01*
X193850823Y-135792999D01*
X193835420Y-135838412D01*
X193752560Y-136087063D01*
X193630678Y-136456733D01*
X193479946Y-136916418D01*
X193310537Y-137435119D01*
X193132622Y-137981833D01*
X192559153Y-139747333D01*
X191843407Y-137538666D01*
X191127662Y-135330000D01*
X188855951Y-135307500D01*
X186584241Y-135284999D01*
X188332962Y-134014999D01*
X188737545Y-133721345D01*
X189181191Y-133399764D01*
X189565185Y-133121886D01*
X189870202Y-132901680D01*
X190076914Y-132753115D01*
X190165993Y-132690159D01*
X190172765Y-132655231D01*
X190142896Y-132475706D01*
X190062511Y-132157255D01*
X189935322Y-131713176D01*
X189765037Y-131156769D01*
X189555368Y-130501332D01*
X189375889Y-129945553D01*
X189212292Y-129429668D01*
X189075741Y-128989273D01*
X188972747Y-128645695D01*
X188909826Y-128420258D01*
X188893489Y-128334288D01*
X188929774Y-128349816D01*
X189085263Y-128448148D01*
X189345085Y-128624617D01*
X189690074Y-128865925D01*
X190101065Y-129158772D01*
X190558890Y-129489861D01*
X190844599Y-129697692D01*
X191295350Y-130024683D01*
X191696662Y-130314724D01*
X192026705Y-130552089D01*
X192263648Y-130721052D01*
X192385664Y-130805886D01*
X192415135Y-130824069D01*
X192481004Y-130849226D01*
X192562429Y-130845617D01*
X192676688Y-130803037D01*
X192841059Y-130711281D01*
X193072820Y-130560141D01*
X193389247Y-130339412D01*
X193807619Y-130038888D01*
X194345214Y-129648363D01*
X194762978Y-129344066D01*
X195209487Y-129018389D01*
X195596731Y-128735462D01*
X195905286Y-128509495D01*
X196115731Y-128354694D01*
X196208641Y-128285268D01*
X196212069Y-128283303D01*
X196212667Y-128351469D01*
G37*
G36*
X213597382Y-116468816D02*
G01*
X215362656Y-117670505D01*
X217023001Y-118990006D01*
X217064835Y-119026107D01*
X217545219Y-119460325D01*
X218093864Y-119985471D01*
X218678093Y-120567874D01*
X219265231Y-121173865D01*
X219822600Y-121769775D01*
X220317524Y-122321931D01*
X220717328Y-122796666D01*
X221651052Y-124025991D01*
X222841024Y-125820380D01*
X223899639Y-127700682D01*
X224819309Y-129650379D01*
X225592444Y-131652954D01*
X226211455Y-133691889D01*
X226668755Y-135750666D01*
X226669417Y-135754318D01*
X226940834Y-137618626D01*
X227092368Y-139527843D01*
X227113725Y-140804613D01*
X227124497Y-141448601D01*
X227037694Y-143347533D01*
X226832436Y-145191272D01*
X226509197Y-146946450D01*
X226323697Y-147771714D01*
X226529212Y-147963023D01*
X226641187Y-148073462D01*
X226852885Y-148288054D01*
X227146573Y-148588605D01*
X227504604Y-148957002D01*
X227909329Y-149375129D01*
X228343101Y-149824872D01*
X228623487Y-150116096D01*
X228984216Y-150490768D01*
X229951474Y-151495412D01*
X229674005Y-151856872D01*
X229565340Y-151998021D01*
X229421416Y-152183510D01*
X229342515Y-152283187D01*
X229300613Y-152283200D01*
X229127124Y-152228813D01*
X228845674Y-152117492D01*
X228483144Y-151960102D01*
X228066413Y-151767504D01*
X227916759Y-151696553D01*
X227243825Y-151381388D01*
X226663656Y-151116276D01*
X226188010Y-150906310D01*
X225828647Y-150756584D01*
X225597325Y-150672192D01*
X225505803Y-150658228D01*
X225467679Y-150742580D01*
X225380960Y-150953712D01*
X225259027Y-151258874D01*
X225114969Y-151625666D01*
X224669015Y-152699084D01*
X223753304Y-154579909D01*
X222690855Y-156410670D01*
X221495602Y-158169954D01*
X220181478Y-159836350D01*
X218762416Y-161388444D01*
X218649534Y-161503344D01*
X218361909Y-161803752D01*
X218173769Y-162019569D01*
X218067443Y-162175292D01*
X218025261Y-162295418D01*
X218029552Y-162404444D01*
X218251603Y-163538620D01*
X218486423Y-164705962D01*
X218702811Y-165741339D01*
X218905180Y-166663629D01*
X219097945Y-167491709D01*
X219285519Y-168244458D01*
X219472314Y-168940752D01*
X219662744Y-169599471D01*
X219685873Y-169674053D01*
X219861222Y-170239491D01*
X219895311Y-170346749D01*
X220014314Y-170735589D01*
X220105248Y-171055805D01*
X220159724Y-171276690D01*
X220169354Y-171367535D01*
X220097172Y-171341114D01*
X219915191Y-171232005D01*
X219652657Y-171057308D01*
X219338068Y-170835272D01*
X218746829Y-170416201D01*
X217607983Y-169653204D01*
X216361373Y-168872113D01*
X214989121Y-168061880D01*
X213473350Y-167211459D01*
X212125033Y-166471766D01*
X210891017Y-167063350D01*
X210477133Y-167260869D01*
X209914026Y-167524475D01*
X209433148Y-167740217D01*
X208992162Y-167925652D01*
X208548734Y-168098335D01*
X208060528Y-168275821D01*
X207485208Y-168475667D01*
X207254150Y-168553795D01*
X205512045Y-169074313D01*
X203751835Y-169475810D01*
X201932796Y-169766342D01*
X200014205Y-169953968D01*
X199872213Y-169964158D01*
X199461716Y-169996539D01*
X199125521Y-170027385D01*
X198895190Y-170053617D01*
X198802288Y-170072157D01*
X198799618Y-170089787D01*
X198806030Y-170239564D01*
X198828630Y-170517920D01*
X198864420Y-170896685D01*
X198910404Y-171347687D01*
X198963584Y-171842755D01*
X199020962Y-172353719D01*
X199079540Y-172852406D01*
X199136323Y-173310646D01*
X199188312Y-173700268D01*
X199256386Y-174184871D01*
X198784027Y-174349751D01*
X198572770Y-174422520D01*
X198365897Y-174491268D01*
X198269334Y-174519864D01*
X198256352Y-174515574D01*
X198230079Y-174486880D01*
X198185584Y-174419306D01*
X198115306Y-174298972D01*
X198011682Y-174111997D01*
X197867153Y-173844499D01*
X197674157Y-173482598D01*
X197425131Y-173012413D01*
X197112516Y-172420062D01*
X196728750Y-171691666D01*
X196636613Y-171517002D01*
X196391065Y-171054446D01*
X196174426Y-170650511D01*
X195999089Y-170328055D01*
X195877447Y-170109935D01*
X195821890Y-170019007D01*
X195815760Y-170014607D01*
X195689059Y-169978942D01*
X195433045Y-169932053D01*
X195081291Y-169879525D01*
X194667373Y-169826944D01*
X192761124Y-169537761D01*
X190638598Y-169057199D01*
X188560503Y-168418152D01*
X186536438Y-167625284D01*
X184576003Y-166683260D01*
X182688797Y-165596742D01*
X180884418Y-164370395D01*
X179172466Y-163008881D01*
X177562541Y-161516865D01*
X176802251Y-160727099D01*
X175372701Y-159061535D01*
X174077826Y-157297908D01*
X172921638Y-155444245D01*
X171908147Y-153508573D01*
X171411497Y-152357078D01*
X171827573Y-152357078D01*
X171882770Y-152518295D01*
X172010153Y-152804427D01*
X172211953Y-153223780D01*
X172490400Y-153784666D01*
X172922284Y-154623245D01*
X173568098Y-155778790D01*
X174240399Y-156856492D01*
X174973078Y-157909676D01*
X175800031Y-158991666D01*
X175984034Y-159217146D01*
X176471200Y-159776794D01*
X177044755Y-160396726D01*
X177673270Y-161045509D01*
X178325314Y-161691709D01*
X178969460Y-162303893D01*
X179574276Y-162850629D01*
X180108334Y-163300483D01*
X180431403Y-163555419D01*
X182218557Y-164838766D01*
X184092841Y-165979361D01*
X186045191Y-166973347D01*
X188066541Y-167816864D01*
X190147828Y-168506056D01*
X192279986Y-169037063D01*
X194453951Y-169406029D01*
X194810167Y-169451738D01*
X195152180Y-169493713D01*
X195401845Y-169522181D01*
X195521418Y-169532666D01*
X195534307Y-169505887D01*
X195496720Y-169361678D01*
X195397187Y-169120636D01*
X195247872Y-168814690D01*
X195189588Y-168700832D01*
X195027747Y-168377573D01*
X194811346Y-167939299D01*
X194552556Y-167410899D01*
X194263548Y-166817266D01*
X193956493Y-166183288D01*
X193643564Y-165533856D01*
X193432021Y-165094569D01*
X193151612Y-164515262D01*
X192899313Y-163997462D01*
X192684106Y-163559422D01*
X192514972Y-163219399D01*
X192400892Y-162995648D01*
X192350849Y-162906422D01*
X192262421Y-162877035D01*
X192036373Y-162837136D01*
X191710606Y-162794538D01*
X191321357Y-162754586D01*
X190979330Y-162721651D01*
X188821622Y-162415993D01*
X186690352Y-161945337D01*
X184599053Y-161313130D01*
X182561261Y-160522821D01*
X182039174Y-160289875D01*
X180198102Y-159353917D01*
X178415077Y-158268737D01*
X176706713Y-157046894D01*
X175089623Y-155700947D01*
X173580421Y-154243456D01*
X172195721Y-152686978D01*
X172072792Y-152539821D01*
X171924814Y-152376149D01*
X171842331Y-152312465D01*
X171827573Y-152357078D01*
X171411497Y-152357078D01*
X171041365Y-151498918D01*
X170325305Y-149423309D01*
X169763976Y-147289771D01*
X169361391Y-145106333D01*
X169297982Y-144644583D01*
X169106556Y-142518646D01*
X169084856Y-141014041D01*
X169518714Y-141014041D01*
X169525151Y-141868765D01*
X169544259Y-142687864D01*
X169576040Y-143438031D01*
X169620496Y-144085956D01*
X169677631Y-144598333D01*
X169785075Y-145285575D01*
X169989733Y-146413136D01*
X170222172Y-147507552D01*
X170474395Y-148534790D01*
X170738403Y-149460815D01*
X171006198Y-150251594D01*
X171081340Y-150426749D01*
X171333345Y-150878216D01*
X171693333Y-151410811D01*
X172145404Y-152006743D01*
X172673658Y-152648224D01*
X173262199Y-153317465D01*
X173895125Y-153996676D01*
X174556539Y-154668070D01*
X175230540Y-155313857D01*
X175901231Y-155916248D01*
X176552713Y-156457454D01*
X176566651Y-156468497D01*
X178295548Y-157732420D01*
X180108412Y-158855519D01*
X181994511Y-159833232D01*
X183943116Y-160660997D01*
X185943497Y-161334250D01*
X187984924Y-161848432D01*
X190056667Y-162198978D01*
X190371123Y-162238297D01*
X190840706Y-162293932D01*
X191271010Y-162341671D01*
X191597758Y-162374204D01*
X192165182Y-162424546D01*
X191730348Y-161487453D01*
X191295514Y-160550359D01*
X189866607Y-159822866D01*
X189497403Y-159630667D01*
X188346954Y-158983369D01*
X187184961Y-158262787D01*
X186070172Y-157506466D01*
X185061334Y-156751950D01*
X184905915Y-156625970D01*
X184431827Y-156216389D01*
X183887149Y-155717141D01*
X183300351Y-155156643D01*
X182699906Y-154563312D01*
X182114285Y-153965566D01*
X181571960Y-153391820D01*
X181101402Y-152870492D01*
X180731081Y-152429999D01*
X180481565Y-152111897D01*
X179203778Y-150324198D01*
X178078397Y-148463025D01*
X177106175Y-146530186D01*
X176287866Y-144527488D01*
X175624225Y-142456741D01*
X175116005Y-140319751D01*
X174763960Y-138118328D01*
X174747148Y-137970563D01*
X174696204Y-137359113D01*
X174658308Y-136635983D01*
X174633749Y-135841223D01*
X174630379Y-135586477D01*
X175003799Y-135586477D01*
X175022724Y-136364114D01*
X175062843Y-137020666D01*
X175217778Y-138434678D01*
X175567367Y-140524194D01*
X176052382Y-142514160D01*
X176673216Y-144406368D01*
X176767614Y-144655893D01*
X176931052Y-145076091D01*
X177083885Y-145456211D01*
X177202436Y-145736739D01*
X177406895Y-146197813D01*
X177372484Y-143874073D01*
X177369517Y-143602557D01*
X177739662Y-143602557D01*
X177753094Y-144460369D01*
X177782620Y-145263833D01*
X177828278Y-145974881D01*
X177890103Y-146555442D01*
X177907566Y-146679586D01*
X177973819Y-147104167D01*
X178042582Y-147425295D01*
X178129985Y-147695286D01*
X178252158Y-147966452D01*
X178425229Y-148291108D01*
X178877879Y-149078381D01*
X180043140Y-150865271D01*
X181343487Y-152554825D01*
X182771243Y-154138896D01*
X184318729Y-155609335D01*
X185978266Y-156957995D01*
X187742175Y-158176730D01*
X187984340Y-158326545D01*
X188357323Y-158547989D01*
X188776804Y-158789419D01*
X189218652Y-159037736D01*
X189658734Y-159279841D01*
X190072916Y-159502632D01*
X190437067Y-159693011D01*
X190727053Y-159837876D01*
X190918742Y-159924129D01*
X190988001Y-159938669D01*
X190978640Y-159910868D01*
X190913864Y-159751645D01*
X190795588Y-159471743D01*
X190633400Y-159093586D01*
X190436886Y-158639598D01*
X190215634Y-158132203D01*
X189270777Y-155937913D01*
X187748551Y-152252582D01*
X186276883Y-148502525D01*
X184869438Y-144724803D01*
X183539879Y-140956480D01*
X182301874Y-137234616D01*
X181169086Y-133596276D01*
X181140573Y-133501302D01*
X180964931Y-132917961D01*
X180806113Y-132393343D01*
X180670452Y-131948153D01*
X180564279Y-131603093D01*
X180493925Y-131378870D01*
X180465722Y-131296187D01*
X180465106Y-131296016D01*
X180422201Y-131370084D01*
X180326278Y-131568596D01*
X180190977Y-131862541D01*
X180029940Y-132222910D01*
X179798679Y-132762146D01*
X179158233Y-134457299D01*
X178633865Y-136196663D01*
X178216339Y-138013648D01*
X177896422Y-139941666D01*
X177846151Y-140389226D01*
X177795569Y-141083731D01*
X177760935Y-141876168D01*
X177742288Y-142728467D01*
X177739662Y-143602557D01*
X177369517Y-143602557D01*
X177363521Y-143053792D01*
X177363920Y-142365213D01*
X177374740Y-141780519D01*
X177396969Y-141267001D01*
X177431592Y-140791952D01*
X177479596Y-140322666D01*
X177585380Y-139497970D01*
X177959112Y-137394584D01*
X178477382Y-135360032D01*
X179146864Y-133370447D01*
X179974233Y-131401966D01*
X180321016Y-130651599D01*
X179823224Y-128861966D01*
X179705393Y-128434547D01*
X179520545Y-127754053D01*
X179315586Y-126990562D01*
X179102889Y-126190454D01*
X178894827Y-125400106D01*
X178703774Y-124665898D01*
X178082114Y-122259463D01*
X177593310Y-123268898D01*
X177143836Y-124259021D01*
X176497398Y-125946115D01*
X175951241Y-127726171D01*
X175515081Y-129566063D01*
X175198635Y-131432666D01*
X175187315Y-131518977D01*
X175117315Y-132200486D01*
X175062827Y-132994760D01*
X175024987Y-133855030D01*
X175004932Y-134734526D01*
X175003799Y-135586477D01*
X174630379Y-135586477D01*
X174622818Y-135014881D01*
X174625803Y-134197006D01*
X174642994Y-133427646D01*
X174674680Y-132746850D01*
X174721151Y-132194666D01*
X174933401Y-130655271D01*
X175362129Y-128510135D01*
X175937837Y-126443554D01*
X176662380Y-124449149D01*
X177537617Y-122520540D01*
X177951841Y-121694080D01*
X177841077Y-121256893D01*
X177730314Y-120819706D01*
X176894937Y-121744686D01*
X175592441Y-123286589D01*
X174297346Y-125062688D01*
X173152784Y-126915882D01*
X172158476Y-128846774D01*
X171314144Y-130855964D01*
X170619512Y-132944053D01*
X170074300Y-135111642D01*
X169678232Y-137359333D01*
X169676486Y-137371855D01*
X169619613Y-137905074D01*
X169575396Y-138569210D01*
X169543839Y-139330955D01*
X169524944Y-140157002D01*
X169518714Y-141014041D01*
X169084856Y-141014041D01*
X169075825Y-140387895D01*
X169202321Y-138263395D01*
X169482572Y-136156206D01*
X169913109Y-134077392D01*
X170490464Y-132038016D01*
X171211167Y-130049140D01*
X172071748Y-128121826D01*
X173068737Y-126267138D01*
X174198665Y-124496139D01*
X175458063Y-122819890D01*
X176843461Y-121249455D01*
X177014418Y-121069693D01*
X177283528Y-120777998D01*
X177457777Y-120568949D01*
X177554306Y-120418045D01*
X177590254Y-120300786D01*
X177582762Y-120192671D01*
X177570720Y-120137046D01*
X177521715Y-119916177D01*
X177444331Y-119570665D01*
X177344615Y-119127416D01*
X177228615Y-118613336D01*
X177102378Y-118055333D01*
X177002639Y-117608712D01*
X176873555Y-117017090D01*
X176733626Y-116364044D01*
X176587060Y-115670212D01*
X176438061Y-114956231D01*
X176290839Y-114242738D01*
X176149597Y-113550371D01*
X176018544Y-112899767D01*
X175901886Y-112311563D01*
X175839621Y-111990785D01*
X176953975Y-111990785D01*
X176983293Y-112227483D01*
X177044909Y-112600139D01*
X177135618Y-113093515D01*
X177252214Y-113692376D01*
X177391490Y-114381485D01*
X177550242Y-115145608D01*
X177725263Y-115969507D01*
X177913347Y-116837947D01*
X178111289Y-117735691D01*
X178315882Y-118647505D01*
X178523922Y-119558151D01*
X178732202Y-120452395D01*
X178937516Y-121314999D01*
X179291334Y-122762598D01*
X180830081Y-128624486D01*
X181422372Y-130651599D01*
X182522230Y-134415853D01*
X184369221Y-140140640D01*
X186372495Y-145802783D01*
X188533493Y-151406222D01*
X190853654Y-156954895D01*
X192200007Y-159938669D01*
X193321697Y-162424546D01*
X193334419Y-162452741D01*
X195977229Y-167903697D01*
X196201146Y-168349433D01*
X196617940Y-169175796D01*
X196785731Y-169505887D01*
X196966330Y-169861173D01*
X197250314Y-170413129D01*
X197473890Y-170839231D01*
X197641057Y-171147044D01*
X197755811Y-171344133D01*
X197822152Y-171438065D01*
X197844078Y-171436405D01*
X197838198Y-171344248D01*
X197818319Y-171107568D01*
X197786876Y-170756874D01*
X197746438Y-170320741D01*
X197699570Y-169827738D01*
X197683378Y-169644937D01*
X197641373Y-169011236D01*
X197606635Y-168242250D01*
X197579160Y-167363176D01*
X197558942Y-166399207D01*
X197545972Y-165375538D01*
X197540247Y-164317364D01*
X197541759Y-163249879D01*
X197548429Y-162447561D01*
X198498609Y-162447561D01*
X198554596Y-165333947D01*
X198563400Y-165766294D01*
X198579579Y-166474909D01*
X198596945Y-167145168D01*
X198614709Y-167750882D01*
X198632082Y-168265858D01*
X198648276Y-168663905D01*
X198662504Y-168918833D01*
X198678066Y-169128698D01*
X198710728Y-169405604D01*
X198776169Y-169555661D01*
X198907172Y-169599959D01*
X199136521Y-169559585D01*
X199383867Y-169488254D01*
X200752599Y-169488254D01*
X200843097Y-169506154D01*
X201088104Y-169488704D01*
X201486667Y-169441561D01*
X202466252Y-169302769D01*
X204578537Y-168894716D01*
X206622764Y-168343134D01*
X208624548Y-167640548D01*
X210609501Y-166779485D01*
X210642153Y-166763928D01*
X211000578Y-166586358D01*
X211292920Y-166429483D01*
X211489841Y-166309802D01*
X211562001Y-166243814D01*
X211506401Y-166190948D01*
X211322160Y-166070795D01*
X211032225Y-165900282D01*
X210660648Y-165693496D01*
X210231485Y-165464528D01*
X209897597Y-165290542D01*
X209502952Y-165089188D01*
X209218447Y-164953294D01*
X209020665Y-164873932D01*
X208886194Y-164842175D01*
X208791619Y-164849095D01*
X208713525Y-164885765D01*
X208581613Y-164976774D01*
X208345470Y-165148906D01*
X208042086Y-165375178D01*
X207705522Y-165630430D01*
X206674513Y-166369061D01*
X205453091Y-167145729D01*
X204157714Y-167880910D01*
X202837462Y-168546852D01*
X201541416Y-169115804D01*
X201417659Y-169165881D01*
X201038929Y-169323774D01*
X200817559Y-169429346D01*
X200752599Y-169488254D01*
X199383867Y-169488254D01*
X199497001Y-169455628D01*
X200200659Y-169224613D01*
X201060697Y-168895941D01*
X201984648Y-168503184D01*
X202934065Y-168064174D01*
X203870504Y-167596741D01*
X204755520Y-167118715D01*
X205550667Y-166647928D01*
X205870814Y-166442608D01*
X206284642Y-166166160D01*
X206717117Y-165867733D01*
X207145485Y-165563940D01*
X207546993Y-165271396D01*
X207898886Y-165006716D01*
X208178410Y-164786513D01*
X208362811Y-164627403D01*
X208429334Y-164546001D01*
X208361274Y-164468833D01*
X208196501Y-164375366D01*
X208195636Y-164374978D01*
X207834040Y-164196533D01*
X207364500Y-163940914D01*
X206818208Y-163627273D01*
X206226356Y-163274763D01*
X205620137Y-162902534D01*
X205030743Y-162529739D01*
X204489368Y-162175530D01*
X204027202Y-161859058D01*
X203675439Y-161599476D01*
X203197211Y-161223874D01*
X202255811Y-161521972D01*
X201621067Y-161713334D01*
X200734467Y-161955397D01*
X199848155Y-162172195D01*
X199040138Y-162343791D01*
X198498609Y-162447561D01*
X197548429Y-162447561D01*
X197550502Y-162198277D01*
X197553677Y-161997333D01*
X198525181Y-161997333D01*
X198757091Y-161987511D01*
X198940682Y-161972596D01*
X199158334Y-161938580D01*
X199532068Y-161850589D01*
X200158048Y-161696463D01*
X200772654Y-161537610D01*
X201350290Y-161381205D01*
X201865363Y-161234422D01*
X202292278Y-161104436D01*
X202605441Y-160998421D01*
X202779259Y-160923552D01*
X202781206Y-160922024D01*
X202755986Y-160838574D01*
X202640267Y-160668358D01*
X202457581Y-160446289D01*
X202175778Y-160079808D01*
X201831238Y-159514139D01*
X201514177Y-158871756D01*
X201249153Y-158203407D01*
X201060726Y-157559838D01*
X201053569Y-157528362D01*
X200938537Y-156791111D01*
X200894824Y-155971425D01*
X200900463Y-155787924D01*
X201587092Y-155787924D01*
X201607046Y-156518653D01*
X201685961Y-157206719D01*
X201825197Y-157806333D01*
X202045241Y-158420839D01*
X202345934Y-159056128D01*
X202716343Y-159643783D01*
X203171773Y-160200208D01*
X203727526Y-160741806D01*
X204398907Y-161284979D01*
X205201219Y-161846131D01*
X206149766Y-162441666D01*
X206374106Y-162575691D01*
X206761310Y-162802082D01*
X207185919Y-163043887D01*
X207666788Y-163311457D01*
X208222775Y-163615145D01*
X208872737Y-163965302D01*
X209635529Y-164372282D01*
X209963245Y-164546001D01*
X210530007Y-164846436D01*
X210640765Y-164905030D01*
X211774933Y-165507733D01*
X212777668Y-166046156D01*
X213140763Y-166243814D01*
X213667450Y-166530527D01*
X214462758Y-166971072D01*
X215182070Y-167378018D01*
X215843867Y-167761594D01*
X216466627Y-168132026D01*
X216651993Y-168244257D01*
X217123815Y-168533887D01*
X217584270Y-168821457D01*
X217988595Y-169078865D01*
X218292028Y-169278010D01*
X218439079Y-169376339D01*
X218690060Y-169539265D01*
X218863355Y-169644930D01*
X218928001Y-169674053D01*
X218927084Y-169668231D01*
X218899288Y-169548460D01*
X218837350Y-169294955D01*
X218747490Y-168932813D01*
X218635928Y-168487133D01*
X218508884Y-167983013D01*
X218382413Y-167472703D01*
X218195689Y-166679625D01*
X218009056Y-165836047D01*
X217818585Y-164922436D01*
X217620353Y-163919260D01*
X217410431Y-162806983D01*
X217184894Y-161566074D01*
X216939815Y-160176999D01*
X216752260Y-159112694D01*
X216539361Y-157941135D01*
X216343502Y-156911656D01*
X216161247Y-156010097D01*
X215989158Y-155222294D01*
X215825275Y-154540220D01*
X216547343Y-154540220D01*
X216802242Y-155707610D01*
X216857297Y-155968152D01*
X216958657Y-156474263D01*
X217075535Y-157081800D01*
X217200500Y-157751333D01*
X217326124Y-158443432D01*
X217444976Y-159118666D01*
X217548048Y-159707653D01*
X217647569Y-160262152D01*
X217736604Y-160744125D01*
X217810714Y-161129962D01*
X217865457Y-161396055D01*
X217896394Y-161518796D01*
X217908982Y-161542860D01*
X217961373Y-161567343D01*
X218055387Y-161522877D01*
X218209024Y-161395311D01*
X218440286Y-161170495D01*
X218767172Y-160834278D01*
X219035101Y-160551372D01*
X220386645Y-158994774D01*
X221615423Y-157346183D01*
X222734201Y-155587343D01*
X223755745Y-153699999D01*
X223834063Y-153540891D01*
X224035782Y-153115153D01*
X224249147Y-152646476D01*
X224462280Y-152162921D01*
X224663301Y-151692550D01*
X224840329Y-151263425D01*
X224981486Y-150903607D01*
X225074892Y-150641159D01*
X225108667Y-150504142D01*
X225108864Y-150490768D01*
X225102825Y-150467779D01*
X225072337Y-150440629D01*
X224998342Y-150401157D01*
X224861782Y-150341203D01*
X224643599Y-150252604D01*
X224324737Y-150127199D01*
X223886138Y-149956827D01*
X223308744Y-149733326D01*
X222987559Y-149611316D01*
X222518061Y-149438222D01*
X221990860Y-149248196D01*
X221430061Y-149049517D01*
X220859768Y-148850466D01*
X220304086Y-148659322D01*
X219787120Y-148484365D01*
X219332976Y-148333874D01*
X218965757Y-148216130D01*
X218709570Y-148139412D01*
X218588519Y-148111999D01*
X218528863Y-148153981D01*
X218465652Y-148302499D01*
X218432605Y-148452539D01*
X218371594Y-148730520D01*
X218296397Y-149073623D01*
X218291801Y-149094591D01*
X218202022Y-149504634D01*
X218173705Y-149631092D01*
X217979993Y-150401002D01*
X217735490Y-151253858D01*
X217458739Y-152130445D01*
X217168283Y-152971545D01*
X216882664Y-153717943D01*
X216547343Y-154540220D01*
X215825275Y-154540220D01*
X215823801Y-154534087D01*
X215661737Y-153931314D01*
X215499531Y-153399813D01*
X215333747Y-152925424D01*
X215160946Y-152493984D01*
X214977694Y-152091333D01*
X214974132Y-152084259D01*
X215795334Y-152084259D01*
X215811544Y-152158550D01*
X215872492Y-152367761D01*
X215968145Y-152671632D01*
X216087244Y-153033556D01*
X216090261Y-153042556D01*
X216196786Y-153368836D01*
X216276317Y-153599172D01*
X216341765Y-153724838D01*
X216406039Y-153737107D01*
X216482047Y-153627254D01*
X216582701Y-153386553D01*
X216720910Y-153006277D01*
X216909582Y-152477700D01*
X217003284Y-152206367D01*
X217182992Y-151640764D01*
X217374177Y-150993111D01*
X217561933Y-150316189D01*
X217731353Y-149662779D01*
X217867533Y-149085666D01*
X217869858Y-149073623D01*
X217845655Y-149047158D01*
X217745304Y-149159266D01*
X217575038Y-149401879D01*
X217341091Y-149766932D01*
X217113215Y-150125567D01*
X216813289Y-150581579D01*
X216521371Y-151010621D01*
X216277079Y-151353613D01*
X216155778Y-151520197D01*
X215970444Y-151786485D01*
X215842840Y-151985815D01*
X215795334Y-152084259D01*
X214974132Y-152084259D01*
X214809301Y-151756893D01*
X214628488Y-151448541D01*
X214424650Y-151169579D01*
X214163009Y-150873012D01*
X213808786Y-150511846D01*
X213459588Y-150173687D01*
X213157318Y-149909332D01*
X212869407Y-149699997D01*
X212545549Y-149509269D01*
X212135437Y-149300740D01*
X211628455Y-149075134D01*
X210774989Y-148784397D01*
X209932666Y-148601299D01*
X209149001Y-148537979D01*
X208641001Y-148538400D01*
X209106667Y-148790530D01*
X209156887Y-148818036D01*
X209469674Y-149008779D01*
X209738351Y-149218011D01*
X209968027Y-149460801D01*
X210163807Y-149752221D01*
X210330798Y-150107340D01*
X210474107Y-150541228D01*
X210598840Y-151068956D01*
X210710104Y-151705594D01*
X210813006Y-152466211D01*
X210912653Y-153365878D01*
X211014150Y-154419666D01*
X211100730Y-155341568D01*
X211188888Y-156221043D01*
X211271282Y-156970394D01*
X211350457Y-157610063D01*
X211428959Y-158160490D01*
X211509336Y-158642115D01*
X211594134Y-159075379D01*
X211600267Y-159104606D01*
X211656091Y-159393400D01*
X211688615Y-159604947D01*
X211690967Y-159695255D01*
X211679156Y-159695456D01*
X211558822Y-159646263D01*
X211340062Y-159535553D01*
X211059114Y-159381330D01*
X210757161Y-159214134D01*
X210402967Y-159027952D01*
X210007342Y-158830893D01*
X209551091Y-158614026D01*
X209015025Y-158368422D01*
X208379949Y-158085151D01*
X207626672Y-157755283D01*
X206736001Y-157369889D01*
X206530289Y-157281075D01*
X205703643Y-156919415D01*
X205014487Y-156608119D01*
X204446147Y-156338360D01*
X203981948Y-156101311D01*
X203605217Y-155888144D01*
X203299279Y-155690031D01*
X203047461Y-155498146D01*
X202833087Y-155303661D01*
X202646305Y-155092905D01*
X202352951Y-154628767D01*
X202152282Y-154121650D01*
X202072428Y-153633323D01*
X202065521Y-153318999D01*
X201950786Y-153580438D01*
X201867386Y-153797661D01*
X201718623Y-154381638D01*
X201624738Y-155060323D01*
X201587092Y-155787924D01*
X200900463Y-155787924D01*
X200920708Y-155129061D01*
X201014466Y-154323778D01*
X201174377Y-153615333D01*
X201230112Y-153435613D01*
X201669895Y-152300303D01*
X202223672Y-151281820D01*
X202886657Y-150385075D01*
X203654067Y-149614976D01*
X204521119Y-148976434D01*
X205483029Y-148474358D01*
X206535013Y-148113658D01*
X207475901Y-147919168D01*
X208647827Y-147820379D01*
X209807648Y-147877611D01*
X210934618Y-148089570D01*
X212007989Y-148454964D01*
X212566764Y-148724530D01*
X213363977Y-149220794D01*
X214099276Y-149809018D01*
X214736860Y-150459444D01*
X215240932Y-151142315D01*
X215562955Y-151664034D01*
X215844730Y-151295004D01*
X215966526Y-151130804D01*
X216208733Y-150785863D01*
X216480764Y-150380985D01*
X216767047Y-149941203D01*
X217052010Y-149491553D01*
X217320081Y-149057070D01*
X217555688Y-148662788D01*
X217743258Y-148333743D01*
X217867220Y-148094969D01*
X217912001Y-147971501D01*
X217908168Y-147956439D01*
X217869237Y-147921100D01*
X217775534Y-147877198D01*
X217611393Y-147820179D01*
X217361149Y-147745488D01*
X217009135Y-147648571D01*
X216539687Y-147524874D01*
X215937137Y-147369841D01*
X215185821Y-147178918D01*
X214674239Y-147051897D01*
X212903551Y-146647464D01*
X211070523Y-146279189D01*
X209211267Y-145952657D01*
X207361898Y-145673454D01*
X205558526Y-145447165D01*
X203837265Y-145279377D01*
X202234228Y-145175675D01*
X201076789Y-145122938D01*
X200980632Y-145495635D01*
X200960135Y-145574180D01*
X200878490Y-145874866D01*
X200807113Y-146122333D01*
X200755996Y-146303728D01*
X200659384Y-146683501D01*
X200541189Y-147177564D01*
X200408191Y-147755447D01*
X200267167Y-148386683D01*
X200124898Y-149040804D01*
X199988161Y-149687341D01*
X199863737Y-150295825D01*
X199758403Y-150835789D01*
X199744056Y-150911980D01*
X199523128Y-152137402D01*
X199330335Y-153320048D01*
X199162208Y-154490215D01*
X199015279Y-155678196D01*
X198886079Y-156914286D01*
X198771141Y-158228782D01*
X198666994Y-159651977D01*
X198570172Y-161214166D01*
X198525181Y-161997333D01*
X197553677Y-161997333D01*
X197566470Y-161187754D01*
X197589656Y-160243503D01*
X197620056Y-159390719D01*
X197657661Y-158654598D01*
X197702467Y-158060333D01*
X197876107Y-156362696D01*
X198155696Y-154111954D01*
X198485608Y-151956516D01*
X198872854Y-149855846D01*
X199324443Y-147769409D01*
X199847384Y-145656666D01*
X199964350Y-145219604D01*
X200084683Y-144789337D01*
X200188033Y-144439920D01*
X200266164Y-144199110D01*
X200310841Y-144094664D01*
X200386844Y-144074340D01*
X200625081Y-144062571D01*
X201011871Y-144065999D01*
X201536038Y-144084486D01*
X202186405Y-144117894D01*
X202626553Y-144144624D01*
X206027148Y-144445817D01*
X209422024Y-144912757D01*
X212798391Y-145542465D01*
X216143461Y-146331966D01*
X219444446Y-147278282D01*
X221488595Y-147971501D01*
X222688559Y-148378437D01*
X225863009Y-149629453D01*
X226115327Y-149735226D01*
X226502881Y-149893850D01*
X226816287Y-150017249D01*
X227028413Y-150094855D01*
X227112127Y-150116096D01*
X227072826Y-150062498D01*
X226924334Y-149901730D01*
X226677285Y-149646123D01*
X226343932Y-149307727D01*
X225936527Y-148898592D01*
X225467323Y-148430769D01*
X224948573Y-147916307D01*
X224392529Y-147367258D01*
X223811444Y-146795670D01*
X223217572Y-146213594D01*
X222623164Y-145633080D01*
X222040473Y-145066179D01*
X221481753Y-144524939D01*
X220959255Y-144021413D01*
X220485232Y-143567649D01*
X220071938Y-143175698D01*
X219731624Y-142857610D01*
X216687053Y-140088902D01*
X212577450Y-136499174D01*
X208440995Y-133056504D01*
X204261018Y-129748117D01*
X200020849Y-126561240D01*
X195703817Y-123483098D01*
X192372038Y-121230333D01*
X194277954Y-121230333D01*
X195448144Y-122029059D01*
X196494122Y-122749616D01*
X198420785Y-124108567D01*
X200403668Y-125545196D01*
X202422380Y-127043452D01*
X204456532Y-128587283D01*
X206485732Y-130160636D01*
X208489589Y-131747459D01*
X210447713Y-133331702D01*
X212339714Y-134897311D01*
X214145200Y-136428236D01*
X215843781Y-137908424D01*
X217415067Y-139321823D01*
X217473359Y-139375090D01*
X217774749Y-139646371D01*
X218026930Y-139866687D01*
X218204961Y-140014598D01*
X218283901Y-140068666D01*
X218301168Y-140020422D01*
X218292802Y-139830810D01*
X218254518Y-139520883D01*
X218190993Y-139115716D01*
X218106901Y-138640384D01*
X218006921Y-138119960D01*
X217895729Y-137579520D01*
X217778001Y-137044140D01*
X217658415Y-136538892D01*
X217541645Y-136088853D01*
X216911068Y-134082929D01*
X216126773Y-132121258D01*
X215195506Y-130235541D01*
X214113359Y-128418602D01*
X212876423Y-126663263D01*
X211480787Y-124962348D01*
X211252415Y-124703986D01*
X211828921Y-124703986D01*
X211873166Y-124789522D01*
X212004527Y-124961319D01*
X212197082Y-125185200D01*
X212216618Y-125207093D01*
X212431999Y-125460972D01*
X212709889Y-125804159D01*
X213016546Y-126194391D01*
X213318226Y-126589407D01*
X214412274Y-128159889D01*
X215477709Y-129954218D01*
X216411070Y-131827186D01*
X217204986Y-133760702D01*
X217852090Y-135736675D01*
X218345012Y-137737013D01*
X218676382Y-139743626D01*
X218710660Y-140020422D01*
X218777677Y-140561585D01*
X219424339Y-141151535D01*
X219643453Y-141352795D01*
X219995389Y-141678854D01*
X220407215Y-142062561D01*
X220844240Y-142471579D01*
X221271776Y-142873575D01*
X221395445Y-142990297D01*
X221853258Y-143423894D01*
X222382510Y-143926932D01*
X222944848Y-144462875D01*
X223501922Y-144995187D01*
X224015380Y-145487333D01*
X225558209Y-146968999D01*
X225499323Y-146164666D01*
X225441296Y-145526673D01*
X225265500Y-144232590D01*
X225013973Y-142879319D01*
X224698521Y-141520513D01*
X224330949Y-140209822D01*
X223923062Y-139000897D01*
X223618137Y-138216528D01*
X222728789Y-136243990D01*
X221699674Y-134361502D01*
X220535668Y-132575106D01*
X219241646Y-130890845D01*
X217822484Y-129314758D01*
X216283059Y-127852890D01*
X214628247Y-126511282D01*
X212862922Y-125295976D01*
X212738500Y-125217757D01*
X212391394Y-125004700D01*
X212106531Y-124837408D01*
X211910588Y-124731236D01*
X211830239Y-124701539D01*
X211828921Y-124703986D01*
X211252415Y-124703986D01*
X211240036Y-124689981D01*
X210957319Y-124378872D01*
X210730981Y-124151191D01*
X210528486Y-123980477D01*
X210317297Y-123840267D01*
X210064876Y-123704100D01*
X209738687Y-123545513D01*
X208217862Y-122883441D01*
X206358893Y-122228627D01*
X204431975Y-121704309D01*
X202463795Y-121315620D01*
X200481040Y-121067692D01*
X198510397Y-120965657D01*
X196578553Y-121014648D01*
X196117147Y-121046550D01*
X195618043Y-121084010D01*
X195182739Y-121119754D01*
X194846304Y-121150884D01*
X194643811Y-121174503D01*
X194277954Y-121230333D01*
X192372038Y-121230333D01*
X191293250Y-120500916D01*
X189586626Y-119406524D01*
X191580667Y-119406524D01*
X191602712Y-119433535D01*
X191739193Y-119544044D01*
X191979592Y-119719865D01*
X192299769Y-119943557D01*
X192675583Y-120197677D01*
X193770499Y-120927054D01*
X194813417Y-120786656D01*
X195381342Y-120728048D01*
X196080790Y-120684229D01*
X196873204Y-120655321D01*
X197721203Y-120641290D01*
X198587408Y-120642098D01*
X199434437Y-120657711D01*
X200224911Y-120688093D01*
X200921447Y-120733209D01*
X201486667Y-120793021D01*
X203704368Y-121176269D01*
X205836525Y-121703644D01*
X207883973Y-122376046D01*
X209850073Y-123194724D01*
X211738184Y-124160926D01*
X213551667Y-125275901D01*
X214929041Y-126258693D01*
X216594441Y-127627494D01*
X218138657Y-129108833D01*
X219557356Y-130695320D01*
X220846204Y-132379563D01*
X222000869Y-134154169D01*
X223017016Y-136011747D01*
X223890311Y-137944905D01*
X224616423Y-139946250D01*
X225191017Y-142008393D01*
X225609760Y-144123939D01*
X225868319Y-146285498D01*
X225874286Y-146358216D01*
X225909938Y-146760941D01*
X225931044Y-146968999D01*
X225943612Y-147092898D01*
X225971758Y-147321387D01*
X225990825Y-147413712D01*
X226010254Y-147417772D01*
X226046205Y-147354901D01*
X226093558Y-147188594D01*
X226157962Y-146897684D01*
X226245065Y-146460999D01*
X226466404Y-145167278D01*
X226705513Y-142984224D01*
X226777273Y-140804613D01*
X226682677Y-138635706D01*
X226422718Y-136484766D01*
X225998389Y-134359056D01*
X225410683Y-132265837D01*
X224660593Y-130212373D01*
X223749113Y-128205926D01*
X222896294Y-126612762D01*
X221982911Y-125131507D01*
X220986144Y-123732968D01*
X219878440Y-122378503D01*
X218632244Y-121029467D01*
X218497427Y-120891718D01*
X217617959Y-120026115D01*
X216772102Y-119257386D01*
X215912301Y-118543933D01*
X214991001Y-117844156D01*
X214763920Y-117682529D01*
X214426784Y-117463895D01*
X214086967Y-117277159D01*
X213717183Y-117111768D01*
X213290147Y-116957171D01*
X212778572Y-116802816D01*
X212155174Y-116638152D01*
X211392667Y-116452627D01*
X211381444Y-116449966D01*
X210600965Y-116272252D01*
X209896059Y-116129936D01*
X209231780Y-116019363D01*
X208573180Y-115936875D01*
X207885316Y-115878813D01*
X207133239Y-115841522D01*
X206282005Y-115821342D01*
X205296667Y-115814618D01*
X204604270Y-115816138D01*
X203686771Y-115827355D01*
X202930067Y-115849232D01*
X202336897Y-115881682D01*
X201910001Y-115924614D01*
X201112473Y-116047664D01*
X199587229Y-116341473D01*
X198085493Y-116704272D01*
X196654801Y-117124015D01*
X195342688Y-117588658D01*
X195283544Y-117611984D01*
X194906539Y-117768347D01*
X194466525Y-117961010D01*
X193987689Y-118178284D01*
X193494221Y-118408482D01*
X193010309Y-118639915D01*
X192560140Y-118860895D01*
X192167903Y-119059734D01*
X191857787Y-119224744D01*
X191653979Y-119344237D01*
X191580667Y-119406524D01*
X189586626Y-119406524D01*
X186772480Y-117601921D01*
X186331340Y-117327533D01*
X185560305Y-116852744D01*
X184754660Y-116361955D01*
X183927210Y-115862597D01*
X183187966Y-115420264D01*
X185315284Y-115420264D01*
X185330012Y-115471930D01*
X185432416Y-115545318D01*
X185655601Y-115691770D01*
X185974032Y-115894824D01*
X186362800Y-116138600D01*
X186797001Y-116407219D01*
X187189307Y-116649715D01*
X187791512Y-117025420D01*
X188438179Y-117431984D01*
X189073786Y-117834470D01*
X189642813Y-118197942D01*
X189778443Y-118284879D01*
X190215813Y-118562329D01*
X190599999Y-118801724D01*
X190908803Y-118989505D01*
X191120028Y-119112116D01*
X191211474Y-119155999D01*
X191298621Y-119129132D01*
X191459941Y-119036260D01*
X191535712Y-118987464D01*
X191798477Y-118839456D01*
X192170961Y-118645595D01*
X192622045Y-118420799D01*
X193120611Y-118179984D01*
X193635541Y-117938069D01*
X194135717Y-117709970D01*
X194590021Y-117510605D01*
X194967334Y-117354891D01*
X196175188Y-116911704D01*
X198277309Y-116282049D01*
X200417775Y-115816095D01*
X202587334Y-115516077D01*
X202603061Y-115514535D01*
X203114062Y-115477705D01*
X203749944Y-115451433D01*
X204468724Y-115435723D01*
X205228417Y-115430577D01*
X205987042Y-115435999D01*
X206702614Y-115451991D01*
X207333150Y-115478557D01*
X207836667Y-115515699D01*
X208024543Y-115535251D01*
X208976132Y-115656108D01*
X209963837Y-115813434D01*
X210919176Y-115995489D01*
X211773667Y-116190536D01*
X212112475Y-116274146D01*
X212426549Y-116347051D01*
X212644379Y-116392222D01*
X212732153Y-116402193D01*
X212720052Y-116380562D01*
X212593503Y-116291486D01*
X212354022Y-116148882D01*
X212026628Y-115966094D01*
X211636339Y-115756467D01*
X211208172Y-115533344D01*
X210767147Y-115310070D01*
X210338282Y-115099989D01*
X209946595Y-114916444D01*
X209137940Y-114563324D01*
X207253729Y-113848228D01*
X205355770Y-113274065D01*
X203476334Y-112851135D01*
X201553087Y-112558722D01*
X199343322Y-112379214D01*
X197145013Y-112367926D01*
X194962379Y-112524369D01*
X192799641Y-112848057D01*
X190661021Y-113338499D01*
X188550737Y-113995209D01*
X186473012Y-114817698D01*
X186237256Y-114921958D01*
X185825422Y-115109861D01*
X185545885Y-115249020D01*
X185381541Y-115349225D01*
X185315284Y-115420264D01*
X183187966Y-115420264D01*
X183090760Y-115362100D01*
X182258112Y-114867894D01*
X181442074Y-114387410D01*
X180655449Y-113928078D01*
X179911041Y-113497329D01*
X179221656Y-113102594D01*
X178600098Y-112751302D01*
X178059172Y-112450884D01*
X177611683Y-112208771D01*
X177270434Y-112032394D01*
X177048231Y-111929181D01*
X176957879Y-111906565D01*
X176953975Y-111990785D01*
X175839621Y-111990785D01*
X175803830Y-111806395D01*
X175728581Y-111404902D01*
X175680347Y-111127721D01*
X175663334Y-110995487D01*
X175701371Y-110905496D01*
X175873049Y-110858666D01*
X176034709Y-110818039D01*
X176228424Y-110625833D01*
X176235528Y-110614480D01*
X176340105Y-110448204D01*
X176395014Y-110362417D01*
X176473797Y-110388907D01*
X176684113Y-110492338D01*
X177010948Y-110664449D01*
X177439377Y-110896828D01*
X177954479Y-111181068D01*
X178541328Y-111508756D01*
X179185002Y-111871483D01*
X179870577Y-112260838D01*
X180583130Y-112668413D01*
X181307737Y-113085796D01*
X182029474Y-113504577D01*
X182733419Y-113916347D01*
X183404648Y-114312695D01*
X184838294Y-115163830D01*
X185224981Y-114968907D01*
X186673602Y-114300026D01*
X188410538Y-113634799D01*
X190236923Y-113067203D01*
X192121580Y-112605772D01*
X194033332Y-112259039D01*
X195941001Y-112035540D01*
X196829963Y-111982218D01*
X198093608Y-111964520D01*
X199427199Y-112003235D01*
X200780904Y-112095702D01*
X202104893Y-112239259D01*
X203349334Y-112431245D01*
X203801083Y-112517269D01*
X205832143Y-113005733D01*
X207844560Y-113653398D01*
X209821077Y-114451985D01*
X211744436Y-115393217D01*
X213482610Y-116402193D01*
X213597382Y-116468816D01*
G37*
%TD*%
D11*
%TO.C,MCU1*%
X190212593Y-127246948D03*
D12*
X190212592Y-129786947D03*
X190212591Y-132326949D03*
X190212591Y-134866948D03*
X190212589Y-137406947D03*
X190212594Y-139946948D03*
X190212594Y-142486947D03*
X190212591Y-145026950D03*
X190212592Y-147566950D03*
X190212591Y-150106948D03*
X190212591Y-152646949D03*
X190212591Y-155186949D03*
X205452593Y-127246947D03*
X205452593Y-129786947D03*
X205452593Y-132326948D03*
X205452592Y-134866946D03*
X205452593Y-137406946D03*
X205452590Y-139946949D03*
X205452590Y-142486948D03*
X205452595Y-145026949D03*
X205452593Y-147566948D03*
X205452593Y-150106947D03*
X205452592Y-152646949D03*
X205452591Y-155186948D03*
%TD*%
M02*
