M48
; DRILL file {KiCad 9.0.2} date 2025-06-13T21:11:23+0200
; FORMAT={-:-/ absolute / metric / decimal}
; #@! TF.CreationDate,2025-06-13T21:11:23+02:00
; #@! TF.GenerationSoftware,Kicad,Pcbnew,9.0.2
; #@! TF.FileFunction,NonPlated,1,2,NPTH
FMAT,2
METRIC
; #@! TA.AperFunction,NonPlated,NPTH,ComponentDrill
T1C1.702
; #@! TA.AperFunction,NonPlated,NPTH,ComponentDrill
T2C3.000
; #@! TA.AperFunction,NonPlated,NPTH,ComponentDrill
T3C3.429
%
G90
G05
T1
X73.741Y-131.479
X75.79Y-119.858
X76.693Y-114.737
X78.742Y-103.116
X79.645Y-97.995
X84.574Y-133.389
X86.623Y-121.768
X87.526Y-116.647
X89.575Y-105.027
X90.478Y-99.906
X92.058Y-131.256
X92.961Y-126.135
X95.01Y-114.515
X95.913Y-109.394
X97.962Y-97.773
X102.891Y-133.166
X103.794Y-128.045
X105.843Y-116.425
X106.746Y-111.304
X108.795Y-99.683
X112.34Y-124.894
X117.026Y-108.553
X121.712Y-92.211
X122.914Y-127.926
X127.6Y-111.585
X131.303Y-126.186
X132.286Y-95.243
X137.118Y-110.211
X138.624Y-158.701
X141.64Y-129.948
X142.932Y-94.236
X146.764Y-136.336
X147.454Y-113.973
X148.961Y-162.463
X152.579Y-120.361
X153.269Y-97.998
X157.101Y-140.098
X158.393Y-104.386
X158.776Y-167.308
X162.545Y-145.607
X162.915Y-124.123
X166.581Y-134.519
X167.787Y-173.617
X168.359Y-129.633
X168.73Y-108.149
X172.395Y-118.544
X172.882Y-149.37
X174.174Y-113.658
X176.014Y-180.837
X176.917Y-138.281
X178.696Y-133.395
X182.732Y-122.306
X183.085Y-189.264
X184.51Y-117.42
X211.155Y-117.42
X212.58Y-189.264
X212.933Y-122.306
X216.969Y-133.395
X218.748Y-138.281
X219.651Y-180.837
X221.492Y-113.658
X222.784Y-149.369
X223.27Y-118.544
X226.936Y-108.149
X227.306Y-129.633
X227.878Y-173.617
X229.084Y-134.519
X232.75Y-124.123
X233.12Y-145.607
X236.889Y-167.308
X237.272Y-104.386
X238.564Y-140.098
X242.396Y-97.998
X243.087Y-120.361
X246.704Y-162.463
X248.211Y-113.973
X248.901Y-136.336
X252.733Y-94.236
X254.025Y-129.948
X257.041Y-158.701
X258.547Y-110.211
X263.379Y-95.243
X264.362Y-126.186
X268.065Y-111.585
X272.751Y-127.926
X273.953Y-92.211
X278.639Y-108.553
X283.325Y-124.894
X286.87Y-99.683
X288.919Y-111.304
X289.822Y-116.425
X291.871Y-128.045
X292.774Y-133.166
X297.703Y-97.773
X299.752Y-109.394
X300.655Y-114.515
X302.704Y-126.135
X303.607Y-131.256
X305.187Y-99.906
X306.09Y-105.027
X308.139Y-116.647
X309.042Y-121.768
X311.091Y-133.389
X316.02Y-97.995
X316.923Y-103.116
X318.972Y-114.737
X319.875Y-119.858
X321.924Y-131.479
T2
X86.095Y-93.091
X90.637Y-96.126
X91.899Y-135.036
X96.441Y-138.071
X111.787Y-128.637
X115.987Y-132.13
X116.473Y-112.295
X120.673Y-115.788
X121.159Y-95.954
X125.359Y-99.447
X130.491Y-129.881
X134.437Y-133.658
X136.305Y-113.906
X137.811Y-162.395
X140.251Y-117.683
X141.758Y-166.173
X142.119Y-97.931
X145.952Y-140.031
X146.065Y-101.709
X149.898Y-143.808
X151.766Y-124.056
X155.712Y-127.833
X157.035Y-170.666
X157.58Y-108.081
X159.869Y-175.336
X161.526Y-111.859
X173.463Y-183.631
X174.992Y-188.875
X181.377Y-109.948
X185.323Y-113.725
X214.288Y-109.948
X215.774Y-191.291
X219.739Y-110.305
X220.673Y-188.875
X228.688Y-111.501
X230.439Y-176.402
X234.139Y-111.859
X234.502Y-127.476
X235.796Y-175.336
X239.953Y-127.833
X240.317Y-143.451
X244.149Y-101.351
X245.768Y-143.808
X248.457Y-165.816
X249.6Y-101.709
X249.963Y-117.326
X253.908Y-166.173
X255.414Y-117.683
X255.778Y-133.301
X261.229Y-133.658
X264.893Y-98.71
X269.579Y-115.051
X270.306Y-99.447
X274.265Y-131.393
X274.992Y-115.788
X279.678Y-132.13
X293.918Y-136.773
X299.224Y-138.071
X309.57Y-93.091
X314.876Y-94.389
T3
X79.158Y-132.434
X81.207Y-120.813
X82.11Y-115.692
X84.159Y-104.072
X85.062Y-98.951
X97.475Y-132.211
X98.378Y-127.09
X100.427Y-115.47
X101.33Y-110.349
X103.379Y-98.728
X117.627Y-126.41
X122.313Y-110.069
X126.999Y-93.727
X136.472Y-128.067
X142.286Y-112.092
X143.793Y-160.582
X148.1Y-96.117
X151.933Y-138.217
X157.747Y-122.242
X163.282Y-170.462
X163.561Y-106.267
X167.713Y-147.488
X171.749Y-136.4
X173.528Y-131.514
X177.563Y-120.425
X179.342Y-115.539
X179.55Y-185.05
X216.115Y-185.05
X216.323Y-115.539
X218.102Y-120.425
X222.138Y-131.514
X223.916Y-136.4
X227.952Y-147.488
X232.104Y-106.267
X232.383Y-170.462
X237.918Y-122.242
X243.733Y-138.217
X247.565Y-96.117
X251.873Y-160.582
X253.379Y-112.092
X259.193Y-128.067
X268.666Y-93.727
X273.352Y-110.069
X278.038Y-126.41
X292.286Y-98.728
X294.336Y-110.349
X295.239Y-115.47
X297.288Y-127.09
X298.191Y-132.211
X310.603Y-98.951
X311.506Y-104.072
X313.555Y-115.692
X314.458Y-120.813
X316.507Y-132.434
M30
