%TF.GenerationSoftware,KiCad,Pcbnew,9.0.2*%
%TF.CreationDate,2025-06-13T21:11:18+02:00*%
%TF.ProjectId,quacken_pcb,71756163-6b65-46e5-9f70-63622e6b6963,v1.0.0*%
%TF.SameCoordinates,Original*%
%TF.FileFunction,Copper,L2,Bot*%
%TF.FilePolarity,Positive*%
%FSLAX46Y46*%
G04 Gerber Fmt 4.6, Leading zero omitted, Abs format (unit mm)*
G04 Created by KiCad (PCBNEW 9.0.2) date 2025-06-13 21:11:18*
%MOMM*%
%LPD*%
G01*
G04 APERTURE LIST*
G04 Aperture macros list*
%AMRotRect*
0 Rectangle, with rotation*
0 The origin of the aperture is its center*
0 $1 length*
0 $2 width*
0 $3 Rotation angle, in degrees counterclockwise*
0 Add horizontal line*
21,1,$1,$2,0,0,$3*%
G04 Aperture macros list end*
%TA.AperFunction,SMDPad,CuDef*%
%ADD10RotRect,2.600000X2.600000X200.000000*%
%TD*%
%TA.AperFunction,ComponentPad*%
%ADD11C,2.032000*%
%TD*%
%TA.AperFunction,SMDPad,CuDef*%
%ADD12RotRect,2.600000X2.600000X160.000000*%
%TD*%
%TA.AperFunction,SMDPad,CuDef*%
%ADD13RotRect,2.600000X2.600000X145.000000*%
%TD*%
%TA.AperFunction,SMDPad,CuDef*%
%ADD14RotRect,2.600000X2.600000X164.000000*%
%TD*%
%TA.AperFunction,SMDPad,CuDef*%
%ADD15RotRect,2.600000X2.600000X350.000000*%
%TD*%
%TA.AperFunction,ComponentPad*%
%ADD16R,1.752600X1.752600*%
%TD*%
%TA.AperFunction,ComponentPad*%
%ADD17C,1.752600*%
%TD*%
%TA.AperFunction,SMDPad,CuDef*%
%ADD18RotRect,2.600000X2.600000X230.000000*%
%TD*%
%TA.AperFunction,SMDPad,CuDef*%
%ADD19RotRect,2.600000X2.600000X190.000000*%
%TD*%
%TA.AperFunction,SMDPad,CuDef*%
%ADD20RotRect,2.600000X2.600000X170.000000*%
%TD*%
%TA.AperFunction,SMDPad,CuDef*%
%ADD21RotRect,2.600000X2.600000X20.000000*%
%TD*%
%TA.AperFunction,SMDPad,CuDef*%
%ADD22RotRect,2.600000X2.600000X130.000000*%
%TD*%
%TA.AperFunction,SMDPad,CuDef*%
%ADD23RotRect,2.600000X2.600000X215.000000*%
%TD*%
%TA.AperFunction,SMDPad,CuDef*%
%ADD24RotRect,2.600000X2.600000X196.000000*%
%TD*%
%TA.AperFunction,SMDPad,CuDef*%
%ADD25RotRect,2.600000X2.600000X10.000000*%
%TD*%
%TA.AperFunction,SMDPad,CuDef*%
%ADD26RotRect,2.600000X2.600000X340.000000*%
%TD*%
%TA.AperFunction,ViaPad*%
%ADD27C,0.800000*%
%TD*%
%TA.AperFunction,Conductor*%
%ADD28C,0.250000*%
%TD*%
G04 APERTURE END LIST*
D10*
%TO.P,S20,1*%
%TO.N,P7*%
X252677309Y-100588408D03*
%TO.P,S20,2*%
%TO.N,mirror_middle_top*%
X241071414Y-102471419D03*
%TD*%
%TO.P,S23,1*%
%TO.N,P8*%
X237216429Y-110738459D03*
%TO.P,S23,2*%
%TO.N,mirror_index_top*%
X225610534Y-112621470D03*
%TD*%
D11*
%TO.P,S27,1*%
%TO.N,P16*%
X94842790Y-118343623D03*
%TO.P,S27,2*%
%TO.N,pinky_home*%
X99402171Y-121279962D03*
%TO.P,S27,3*%
%TO.N,P16*%
X103961547Y-124216299D03*
%TD*%
D12*
%TO.P,S9,1*%
%TO.N,P8*%
X158789401Y-128953464D03*
%TO.P,S9,2*%
%TO.N,index_home*%
X148688396Y-122935808D03*
%TD*%
D13*
%TO.P,S12,1*%
%TO.N,P8*%
X162551742Y-177214653D03*
%TO.P,S12,2*%
%TO.N,comfy_default*%
X154352402Y-168787714D03*
%TD*%
D14*
%TO.P,S3,1*%
%TO.N,P14*%
X123821330Y-116690767D03*
%TO.P,S3,2*%
%TO.N,ring_home*%
X113325159Y-111392382D03*
%TD*%
D11*
%TO.P,S28,1*%
%TO.N,P16*%
X97794795Y-101601890D03*
%TO.P,S28,2*%
%TO.N,pinky_top*%
X102354176Y-104538229D03*
%TO.P,S28,3*%
%TO.N,P16*%
X106913552Y-107474566D03*
%TD*%
%TO.P,S37,1*%
%TO.N,P9*%
X231350707Y-142207455D03*
%TO.P,S37,2*%
%TO.N,mirror_inner_bottom*%
X225934003Y-141944201D03*
%TO.P,S37,3*%
%TO.N,P9*%
X220517295Y-141680950D03*
%TD*%
D15*
%TO.P,S39,1*%
%TO.N,P10*%
X82869727Y-92522249D03*
%TO.P,S39,2*%
%TO.N,outer_top*%
X93862228Y-96694462D03*
%TD*%
D16*
%TO.P,MCU1,1*%
%TO.N,RAW*%
X190212593Y-127246948D03*
D17*
%TO.P,MCU1,2*%
%TO.N,GND*%
X190212592Y-129786947D03*
%TO.P,MCU1,3*%
%TO.N,RST*%
X190212591Y-132326949D03*
%TO.P,MCU1,4*%
%TO.N,VCC*%
X190212591Y-134866948D03*
%TO.P,MCU1,5*%
%TO.N,P21*%
X190212589Y-137406947D03*
%TO.P,MCU1,6*%
%TO.N,P20*%
X190212594Y-139946948D03*
%TO.P,MCU1,7*%
%TO.N,P19*%
X190212594Y-142486947D03*
%TO.P,MCU1,8*%
%TO.N,P18*%
X190212591Y-145026950D03*
%TO.P,MCU1,9*%
%TO.N,P15*%
X190212592Y-147566950D03*
%TO.P,MCU1,10*%
%TO.N,P14*%
X190212591Y-150106948D03*
%TO.P,MCU1,11*%
%TO.N,P16*%
X190212591Y-152646949D03*
%TO.P,MCU1,12*%
%TO.N,P10*%
X190212591Y-155186949D03*
%TO.P,MCU1,13*%
%TO.N,P1*%
X205452593Y-127246947D03*
%TO.P,MCU1,14*%
%TO.N,P0*%
X205452593Y-129786947D03*
%TO.P,MCU1,15*%
%TO.N,GND*%
X205452593Y-132326948D03*
%TO.P,MCU1,16*%
X205452592Y-134866946D03*
%TO.P,MCU1,17*%
%TO.N,P2*%
X205452593Y-137406946D03*
%TO.P,MCU1,18*%
%TO.N,P3*%
X205452590Y-139946949D03*
%TO.P,MCU1,19*%
%TO.N,P4*%
X205452590Y-142486948D03*
%TO.P,MCU1,20*%
%TO.N,P5*%
X205452595Y-145026949D03*
%TO.P,MCU1,21*%
%TO.N,P6*%
X205452593Y-147566948D03*
%TO.P,MCU1,22*%
%TO.N,P7*%
X205452593Y-150106947D03*
%TO.P,MCU1,23*%
%TO.N,P8*%
X205452592Y-152646949D03*
%TO.P,MCU1,24*%
%TO.N,P9*%
X205452591Y-155186948D03*
%TD*%
D18*
%TO.P,S26,1*%
%TO.N,P9*%
X222778588Y-186366139D03*
%TO.P,S26,2*%
%TO.N,mirror_reachy_default*%
X213669092Y-193799821D03*
%TD*%
D12*
%TO.P,S7,1*%
%TO.N,P7*%
X149142870Y-102828628D03*
%TO.P,S7,2*%
%TO.N,middle_top*%
X139041865Y-96810972D03*
%TD*%
D11*
%TO.P,S30,1*%
%TO.N,P16*%
X288022306Y-103338371D03*
%TO.P,S30,2*%
%TO.N,mirror_pinky_top*%
X293311006Y-104538226D03*
%TO.P,S30,3*%
%TO.N,P16*%
X298599707Y-105738081D03*
%TD*%
D12*
%TO.P,S8,1*%
%TO.N,P8*%
X152975064Y-144928238D03*
%TO.P,S8,2*%
%TO.N,index_bottom*%
X142874059Y-138910582D03*
%TD*%
D10*
%TO.P,S22,1*%
%TO.N,P8*%
X243030764Y-126713230D03*
%TO.P,S22,2*%
%TO.N,mirror_index_home*%
X231424869Y-128596241D03*
%TD*%
D12*
%TO.P,S10,1*%
%TO.N,P8*%
X164603753Y-112978688D03*
%TO.P,S10,2*%
%TO.N,index_top*%
X154502748Y-106961032D03*
%TD*%
%TO.P,S11,1*%
%TO.N,P7*%
X144834993Y-167292913D03*
%TO.P,S11,2*%
%TO.N,tucky_default*%
X134733988Y-161275257D03*
%TD*%
D19*
%TO.P,S14,1*%
%TO.N,P16*%
X302448976Y-137502239D03*
%TO.P,S14,2*%
%TO.N,mirror_pinky_bottom*%
X290692417Y-137341300D03*
%TD*%
D11*
%TO.P,S32,1*%
%TO.N,P10*%
X87693654Y-112818248D03*
%TO.P,S32,2*%
%TO.N,outer_home*%
X83134273Y-109881909D03*
%TO.P,S32,3*%
%TO.N,P10*%
X78574897Y-106945572D03*
%TD*%
%TO.P,S33,1*%
%TO.N,P9*%
X173711409Y-145627670D03*
%TO.P,S33,2*%
%TO.N,inner_bottom*%
X169731187Y-141944212D03*
%TO.P,S33,3*%
%TO.N,P9*%
X165750967Y-138260760D03*
%TD*%
%TO.P,S35,1*%
%TO.N,P10*%
X320771642Y-127823503D03*
%TO.P,S35,2*%
%TO.N,mirror_outer_bottom*%
X315482942Y-126623648D03*
%TO.P,S35,3*%
%TO.N,P10*%
X310194241Y-125423793D03*
%TD*%
D20*
%TO.P,S1,1*%
%TO.N,P16*%
X99666712Y-138639635D03*
%TO.P,S1,2*%
%TO.N,pinky_bottom*%
X88674211Y-134467422D03*
%TD*%
D10*
%TO.P,S21,1*%
%TO.N,P8*%
X248845109Y-142688009D03*
%TO.P,S21,2*%
%TO.N,mirror_index_bottom*%
X237239214Y-144571020D03*
%TD*%
%TO.P,S18,1*%
%TO.N,P7*%
X264305994Y-132537955D03*
%TO.P,S18,2*%
%TO.N,mirror_middle_bottom*%
X252700099Y-134420966D03*
%TD*%
D11*
%TO.P,S34,1*%
%TO.N,P9*%
X179525749Y-129652888D03*
%TO.P,S34,2*%
%TO.N,inner_home*%
X175545527Y-125969430D03*
%TO.P,S34,3*%
%TO.N,P9*%
X171565307Y-122285978D03*
%TD*%
D10*
%TO.P,S24,1*%
%TO.N,P7*%
X256985193Y-165052689D03*
%TO.P,S24,2*%
%TO.N,mirror_tucky_default*%
X245379298Y-166935700D03*
%TD*%
D21*
%TO.P,S42,1*%
%TO.N,P9*%
X211210729Y-111067790D03*
%TO.P,S42,2*%
%TO.N,mirror_inner_top*%
X222816624Y-109184779D03*
%TD*%
D11*
%TO.P,S38,1*%
%TO.N,P9*%
X225536369Y-126232681D03*
%TO.P,S38,2*%
%TO.N,mirror_inner_home*%
X220119665Y-125969427D03*
%TO.P,S38,3*%
%TO.N,P9*%
X214702957Y-125706176D03*
%TD*%
D22*
%TO.P,S13,1*%
%TO.N,P9*%
X177096863Y-191383739D03*
%TO.P,S13,2*%
%TO.N,reachy_default*%
X171357966Y-181121789D03*
%TD*%
D14*
%TO.P,S4,1*%
%TO.N,P14*%
X128507178Y-100349329D03*
%TO.P,S4,2*%
%TO.N,ring_top*%
X118011007Y-95050944D03*
%TD*%
D23*
%TO.P,S25,1*%
%TO.N,P8*%
X238478895Y-173457721D03*
%TO.P,S25,2*%
%TO.N,mirror_comfy_default*%
X227755820Y-178280394D03*
%TD*%
D24*
%TO.P,S17,1*%
%TO.N,P14*%
X273454286Y-98543891D03*
%TO.P,S17,2*%
%TO.N,mirror_ring_top*%
X261745308Y-99612726D03*
%TD*%
D12*
%TO.P,S6,1*%
%TO.N,P7*%
X143328527Y-118803407D03*
%TO.P,S6,2*%
%TO.N,middle_home*%
X133227522Y-112785751D03*
%TD*%
D11*
%TO.P,S36,1*%
%TO.N,P10*%
X317819616Y-111081760D03*
%TO.P,S36,2*%
%TO.N,mirror_outer_home*%
X312530916Y-109881905D03*
%TO.P,S36,3*%
%TO.N,P10*%
X307242215Y-108682050D03*
%TD*%
%TO.P,S29,1*%
%TO.N,P16*%
X290974329Y-120080106D03*
%TO.P,S29,2*%
%TO.N,mirror_pinky_home*%
X296263029Y-121279961D03*
%TO.P,S29,3*%
%TO.N,P16*%
X301551730Y-122479816D03*
%TD*%
%TO.P,S31,1*%
%TO.N,P10*%
X84741630Y-129559977D03*
%TO.P,S31,2*%
%TO.N,outer_bottom*%
X80182249Y-126623638D03*
%TO.P,S31,3*%
%TO.N,P10*%
X75622873Y-123687301D03*
%TD*%
D24*
%TO.P,S15,1*%
%TO.N,P14*%
X282825960Y-131226789D03*
%TO.P,S15,2*%
%TO.N,mirror_ring_bottom*%
X271116982Y-132295624D03*
%TD*%
D12*
%TO.P,S5,1*%
%TO.N,P7*%
X137514189Y-134778182D03*
%TO.P,S5,2*%
%TO.N,middle_bottom*%
X127413184Y-128760526D03*
%TD*%
D24*
%TO.P,S16,1*%
%TO.N,P14*%
X278140117Y-114885345D03*
%TO.P,S16,2*%
%TO.N,mirror_ring_home*%
X266431139Y-115954180D03*
%TD*%
D25*
%TO.P,S41,1*%
%TO.N,P10*%
X306344972Y-93659638D03*
%TO.P,S41,2*%
%TO.N,mirror_outer_top*%
X318101531Y-93820577D03*
%TD*%
D26*
%TO.P,S40,1*%
%TO.N,P9*%
X178299481Y-108827557D03*
%TO.P,S40,2*%
%TO.N,inner_top*%
X188400486Y-114845213D03*
%TD*%
D10*
%TO.P,S19,1*%
%TO.N,P7*%
X258491653Y-116563168D03*
%TO.P,S19,2*%
%TO.N,mirror_middle_home*%
X246885758Y-118446179D03*
%TD*%
D14*
%TO.P,S2,1*%
%TO.N,P14*%
X119135501Y-133032220D03*
%TO.P,S2,2*%
%TO.N,ring_bottom*%
X108639330Y-127733835D03*
%TD*%
D27*
%TO.N,P15*%
X172167494Y-161037238D03*
X175797507Y-158417789D03*
%TO.N,P14*%
X282297825Y-137323248D03*
X119497074Y-135873400D03*
%TO.N,P16*%
X103912764Y-138693313D03*
X296476988Y-141048338D03*
%TO.N,P10*%
X85656544Y-139731953D03*
X297127178Y-142487123D03*
%TO.N,P5*%
X228675348Y-152545980D03*
X231974194Y-144415671D03*
%TO.N,P6*%
X211360976Y-180376806D03*
%TO.N,P7*%
X256592320Y-147449749D03*
%TO.N,P8*%
X247586764Y-147163382D03*
%TO.N,pinky_bottom*%
X94419698Y-129675712D03*
%TO.N,ring_bottom*%
X114301173Y-120316294D03*
%TO.N,ring_home*%
X118890888Y-103947282D03*
%TO.N,ring_top*%
X123480595Y-87578266D03*
%TO.N,middle_bottom*%
X134157408Y-121940831D03*
%TO.N,middle_home*%
X139877779Y-105931854D03*
%TO.N,middle_top*%
X145692124Y-89957076D03*
%TO.N,index_bottom*%
X149541427Y-132009692D03*
%TO.N,index_home*%
X155355767Y-116034919D03*
%TO.N,index_top*%
X161264066Y-100094345D03*
%TO.N,tucky_default*%
X140951509Y-154251771D03*
%TO.N,comfy_default*%
X158711782Y-164929608D03*
%TO.N,reachy_default*%
X175826559Y-178076625D03*
%TO.N,mirror_pinky_bottom*%
X289509591Y-134808208D03*
%TO.N,mirror_ring_bottom*%
X271721988Y-123191907D03*
%TO.N,mirror_ring_home*%
X267419754Y-106714928D03*
%TO.N,mirror_ring_top*%
X262360613Y-90625958D03*
%TO.N,mirror_middle_bottom*%
X253481080Y-124800237D03*
%TO.N,mirror_middle_home*%
X248034087Y-108716941D03*
%TO.N,mirror_middle_top*%
X241438118Y-93079872D03*
%TO.N,mirror_index_bottom*%
X237757956Y-135077674D03*
%TO.N,mirror_index_home*%
X231868441Y-119123504D03*
%TO.N,mirror_index_top*%
X226336008Y-103046133D03*
%TO.N,mirror_tucky_default*%
X246464780Y-157298099D03*
%TO.N,mirror_comfy_default*%
X225875887Y-169288604D03*
%TO.N,mirror_reachy_default*%
X209210225Y-185461266D03*
%TO.N,pinky_top*%
X100656344Y-95364742D03*
%TO.N,outer_top*%
X93862227Y-96694453D03*
%TO.N,inner_top*%
X188158308Y-117630350D03*
%TO.N,mirror_outer_top*%
X316607858Y-100313184D03*
%TO.N,mirror_inner_top*%
X217796976Y-117933310D03*
%TD*%
D28*
%TO.N,P15*%
X172167494Y-161037238D02*
X175708153Y-158558044D01*
%TO.N,P14*%
X128507177Y-100349328D02*
X119135502Y-133032215D01*
X282586841Y-136703449D02*
X282297825Y-137323248D01*
X273454283Y-98543898D02*
X278140124Y-114885347D01*
X273454283Y-98543898D02*
X282825951Y-131226800D01*
X119235010Y-135311408D02*
X119497074Y-135873400D01*
X128507177Y-100349328D02*
X123821340Y-116690765D01*
X282825957Y-131226788D02*
G75*
G02*
X282586854Y-136703455I-6730457J-2449712D01*
G01*
X119135502Y-133032223D02*
G75*
G03*
X119235008Y-135311409I2800998J-1019477D01*
G01*
%TO.N,P16*%
X300172013Y-121513731D02*
X301551736Y-122479819D01*
X95203413Y-118409602D02*
X95917830Y-118574542D01*
X288933747Y-104062288D02*
X289151384Y-104268315D01*
X289111500Y-103187690D02*
X289842926Y-103136540D01*
X289349980Y-104470077D02*
X289553577Y-104691642D01*
X102995445Y-122836563D02*
X103961545Y-124216295D01*
X292063519Y-119929423D02*
X292794941Y-119878277D01*
X290092632Y-105368229D02*
X290265112Y-105619004D01*
X98151181Y-102303597D02*
X98191623Y-102443707D01*
X96622637Y-118776636D02*
X96940384Y-118835350D01*
X289925499Y-105142494D02*
X290092632Y-105368229D01*
X289151384Y-104268315D02*
X289349980Y-104470077D01*
X292794941Y-119878277D02*
X293113602Y-119824767D01*
X98249781Y-102750429D02*
X98264861Y-102927591D01*
X98191623Y-102443707D02*
X98228471Y-102609974D01*
X291335771Y-120018778D02*
X292063519Y-119929423D01*
X300523405Y-126581810D02*
X302448982Y-137502240D01*
X98266476Y-103061112D02*
X98261541Y-103161232D01*
X98264861Y-102927591D02*
X98266476Y-103061112D01*
X299112603Y-140089055D02*
X299135154Y-140099573D01*
X289553577Y-104691642D02*
X289736974Y-104906057D01*
X98228471Y-102609974D02*
X98249781Y-102750429D01*
X288721058Y-103874326D02*
X288933747Y-104062288D01*
X98261541Y-103161232D02*
X95868328Y-116733845D01*
X95917830Y-118574542D02*
X96622637Y-118776636D01*
X288383755Y-103277043D02*
X289111500Y-103187690D01*
X297219990Y-104771998D02*
X298599709Y-105738082D01*
X296476988Y-141048338D02*
X299112603Y-140089055D01*
X290265112Y-105619004D02*
X291999557Y-115455561D01*
X289736974Y-104906057D02*
X289925499Y-105142494D01*
X299135154Y-140099573D02*
X300271153Y-139686101D01*
X289842926Y-103136540D02*
X290161579Y-103083037D01*
X99666710Y-138639631D02*
X101539581Y-128018009D01*
X104312098Y-107015858D02*
X106913550Y-107474569D01*
X101539581Y-128018009D02*
G75*
G02*
X103961522Y-124216263I5800119J-1022691D01*
G01*
X290468509Y-103041508D02*
G75*
G02*
X297219973Y-104772022I1090991J-9778992D01*
G01*
X96940384Y-118835350D02*
G75*
G02*
X102995461Y-122836552I-2024584J-9646050D01*
G01*
X95868328Y-116733845D02*
G75*
G02*
X94842783Y-118343621I-2455928J433045D01*
G01*
X301376308Y-122734667D02*
G75*
G03*
X300523398Y-126581811I4217492J-2953133D01*
G01*
X293113602Y-119824767D02*
G75*
G02*
X300172032Y-121513704I1396598J-9757133D01*
G01*
X291999557Y-115455561D02*
G75*
G02*
X290974344Y-120080125I-6094957J-1074739D01*
G01*
X98261541Y-103161232D02*
G75*
G03*
X104312100Y-107015849I7678259J5376432D01*
G01*
X302354001Y-137699750D02*
G75*
G02*
X299930326Y-139810143I-3933901J2070950D01*
G01*
X100253175Y-138853090D02*
G75*
G03*
X103912762Y-138693308I1636925J4497290D01*
G01*
X290468509Y-103041508D02*
X290161579Y-103083037D01*
%TO.N,P10*%
X307851208Y-109153261D02*
X308034669Y-109319005D01*
X309062839Y-108480219D02*
X309381501Y-108426710D01*
X317600770Y-125603237D02*
X320771638Y-127823504D01*
X79150732Y-108142508D02*
X79200404Y-108340972D01*
X83775527Y-128180240D02*
X84741632Y-129559978D01*
X75983496Y-123753288D02*
X76697914Y-123918224D01*
X297127178Y-142487123D02*
X303373605Y-140213610D01*
X79097806Y-107968643D02*
X79150732Y-108142508D01*
X84741630Y-129559981D02*
X85261058Y-130673889D01*
X307804781Y-136153188D02*
X309924231Y-131608010D01*
X86727554Y-111438508D02*
X87693651Y-112818244D01*
X307603665Y-108620714D02*
X308331411Y-108531363D01*
X79200404Y-108340972D02*
X76827975Y-121795661D01*
X309020513Y-110482563D02*
X311007905Y-121753603D01*
X78957960Y-107609877D02*
X79028954Y-107778934D01*
X308392605Y-109681061D02*
X308567165Y-109879279D01*
X78935522Y-107011550D02*
X79649944Y-107176496D01*
X308222892Y-109502380D02*
X308392605Y-109681061D01*
X80354749Y-107378591D02*
X80672492Y-107437297D01*
X308034669Y-109319005D02*
X308222892Y-109502380D01*
X306344976Y-93659636D02*
X308217857Y-104281256D01*
X82869731Y-92522246D02*
X80996849Y-103143874D01*
X308567165Y-109879279D02*
X308721997Y-110069593D01*
X308881788Y-110282075D02*
X309020513Y-110482563D01*
X308721997Y-110069593D02*
X308881788Y-110282075D01*
X76697914Y-123918224D02*
X77402727Y-124120316D01*
X316439896Y-110115670D02*
X317819621Y-111081766D01*
X308331411Y-108531363D02*
X309062839Y-108480219D01*
X79649944Y-107176496D02*
X80354749Y-107378591D01*
X310194243Y-125423783D02*
X313868778Y-124775861D01*
X79028954Y-107778934D02*
X79097806Y-107968643D01*
X77402727Y-124120316D02*
X77720471Y-124179035D01*
X78023092Y-124244975D02*
X77720471Y-124179035D01*
X78023092Y-124244975D02*
G75*
G02*
X83775534Y-128180235I-2319192J-9562125D01*
G01*
X85261058Y-130673889D02*
G75*
G02*
X85656545Y-139731953I-10736408J-5006431D01*
G01*
X80975105Y-107503255D02*
G75*
G02*
X86727549Y-111438512I-2319405J-9562445D01*
G01*
X313868778Y-124775861D02*
G75*
G02*
X317600755Y-125603258I867222J-4918639D01*
G01*
X311007905Y-121753603D02*
G75*
G02*
X310194230Y-125423774I-4837105J-852897D01*
G01*
X303373605Y-140213610D02*
G75*
G03*
X307804811Y-136153202I-2685805J7379210D01*
G01*
X80996849Y-103143874D02*
G75*
G02*
X78574887Y-106945563I-5799949J1022674D01*
G01*
X309381501Y-108426710D02*
G75*
G02*
X316439905Y-110115658I1396599J-9756990D01*
G01*
X309924231Y-131608010D02*
G75*
G03*
X310194219Y-125423801I-7330031J3418010D01*
G01*
X80975105Y-107503255D02*
X80672492Y-107437297D01*
X308217857Y-104281256D02*
G75*
G02*
X307242236Y-108682060I-5799957J-1022744D01*
G01*
X76827975Y-121795661D02*
G75*
G02*
X75622850Y-123687277I-2885875J508861D01*
G01*
%TO.N,P5*%
X231974194Y-144415671D02*
X228726220Y-151380987D01*
X228726220Y-151380987D02*
G75*
G03*
X228675343Y-152545982I1380880J-643913D01*
G01*
%TO.N,P6*%
X201720977Y-157103788D02*
X201720976Y-155146805D01*
X204442095Y-148577444D02*
X205452593Y-147566947D01*
X201720976Y-155146805D02*
G75*
G02*
X204442083Y-148577432I9290524J5D01*
G01*
X211360976Y-180376806D02*
G75*
G02*
X201720987Y-157103788I23273024J23273006D01*
G01*
%TO.N,P7*%
X177717187Y-104011984D02*
X205825537Y-104011983D01*
X158258764Y-98439743D02*
X164264602Y-98439741D01*
X252677307Y-100588400D02*
X264305994Y-132537949D01*
X264305994Y-132537955D02*
X265306980Y-135288139D01*
X137514184Y-134778168D02*
X145711357Y-157299717D01*
X258259796Y-146842838D02*
X256592320Y-147449749D01*
X143328530Y-118803405D02*
X137514184Y-134778180D01*
X265189169Y-137986440D02*
X263952301Y-140638914D01*
X149142873Y-102828623D02*
X150189265Y-101782237D01*
X263952301Y-140638914D02*
X263267628Y-142107194D01*
X252677307Y-100588400D02*
X258491641Y-116563172D01*
X252328452Y-100423122D02*
X251191490Y-97299352D01*
X149142871Y-102828633D02*
X143328530Y-118803405D01*
X263267628Y-142107194D02*
X263148096Y-142363537D01*
X241952180Y-90635195D02*
X226952587Y-96094597D01*
X226952587Y-96094597D02*
X210358766Y-102134257D01*
X264658931Y-148596300D02*
X256985191Y-165052687D01*
X245215481Y-90777672D02*
G75*
G03*
X241952168Y-90635163I-1803681J-3867928D01*
G01*
X164264602Y-98439741D02*
G75*
G02*
X168368764Y-100139744I-2J-5804159D01*
G01*
X145711357Y-157299717D02*
G75*
G02*
X145320500Y-166251731I-11001417J-4004203D01*
G01*
X263148096Y-142363537D02*
G75*
G02*
X258259789Y-146842818I-7851096J3661037D01*
G01*
X265306980Y-135288139D02*
G75*
G02*
X265189185Y-137986447I-3316080J-1206961D01*
G01*
X251191490Y-97299352D02*
G75*
G03*
X245215484Y-90777666I-10860390J-3952848D01*
G01*
X168368766Y-100139742D02*
G75*
G03*
X177717187Y-104011988I9348434J9348442D01*
G01*
X150189265Y-101782237D02*
G75*
G02*
X158258764Y-98439776I8069435J-8069463D01*
G01*
X205825537Y-104011983D02*
G75*
G03*
X210358754Y-102134245I-37J6410983D01*
G01*
X265247147Y-135123773D02*
G75*
G02*
X264658932Y-148596300I-16556847J-6026227D01*
G01*
%TO.N,P8*%
X157174718Y-149917059D02*
X157306676Y-150223512D01*
X155087968Y-146768038D02*
X155331149Y-147041353D01*
X157398805Y-150456240D02*
X161950670Y-176271174D01*
X156193025Y-148164943D02*
X156376745Y-148444225D01*
X154596818Y-146261703D02*
X154853942Y-146519477D01*
X225160775Y-100172218D02*
X212677511Y-104715756D01*
X156376745Y-148444225D02*
X156574289Y-148764328D01*
X209026869Y-106227898D02*
X178235604Y-106227902D01*
X154348188Y-146025989D02*
X154596818Y-146261703D01*
X237216429Y-110738459D02*
X235807844Y-106868393D01*
X169045605Y-111817898D02*
X169020796Y-111840713D01*
X155331149Y-147041353D02*
X155549528Y-147301653D01*
X154077910Y-145784106D02*
X154348188Y-146025989D01*
X157062678Y-149674849D02*
X157174718Y-149917059D01*
X155979730Y-147860953D02*
X156193025Y-148164943D01*
X156920263Y-149388055D02*
X157062678Y-149674849D01*
X155778062Y-147590280D02*
X155979730Y-147860953D01*
X172090018Y-108773485D02*
X169045605Y-111817898D01*
X156738533Y-149049621D02*
X156920263Y-149388055D01*
X154853942Y-146519477D02*
X155087968Y-146768038D01*
X155549528Y-147301653D02*
X155778062Y-147590280D01*
X157306676Y-150223512D02*
X157398805Y-150456240D01*
X248759520Y-144648404D02*
X247586764Y-147163382D01*
X239122234Y-172868221D02*
X240567864Y-169768045D01*
X237216426Y-110738446D02*
X248845105Y-142688011D01*
X164603747Y-112978684D02*
X152975074Y-144928238D01*
X156574289Y-148764328D02*
X156738533Y-149049621D01*
X237216426Y-110738446D02*
X243030771Y-126713224D01*
X164603747Y-112978684D02*
X158789409Y-128953459D01*
X166273482Y-112978687D02*
X164603756Y-112978690D01*
X153815632Y-145562219D02*
X154077910Y-145784106D01*
X248239196Y-143579248D02*
G75*
G03*
X244004889Y-154264615I24627304J-15940752D01*
G01*
X235807844Y-106868393D02*
G75*
G03*
X229859928Y-100377384I-10809344J-3934307D01*
G01*
X248845108Y-142688010D02*
G75*
G02*
X248759522Y-144648405I-2409108J-876890D01*
G01*
X212677511Y-104715756D02*
G75*
G02*
X209026869Y-106227875I-3650611J3650656D01*
G01*
X229859927Y-100377387D02*
G75*
G03*
X225160778Y-100172226I-2597227J-5569813D01*
G01*
X178235604Y-106227902D02*
G75*
G03*
X172090032Y-108773499I-4J-8691098D01*
G01*
X169020796Y-111840713D02*
G75*
G02*
X166273482Y-112978675I-2747296J2747313D01*
G01*
X244004892Y-154264616D02*
G75*
G02*
X240567866Y-169768047I-20432692J-3602884D01*
G01*
%TO.N,P9*%
X177225767Y-152053925D02*
X177266206Y-152276362D01*
X166094648Y-138388356D02*
X166769581Y-138674842D01*
X215467619Y-126236683D02*
X215582679Y-126362247D01*
X215886889Y-126823175D02*
X220600577Y-139773896D01*
X176759602Y-150378892D02*
X176866921Y-150691310D01*
X179812042Y-108067953D02*
X203968486Y-108067952D01*
X215362552Y-126135557D02*
X215467619Y-126236683D01*
X229824278Y-141495668D02*
X231350711Y-142207455D01*
X176981651Y-151059335D02*
X177067690Y-151368908D01*
X176866921Y-150691310D02*
X176981651Y-151059335D01*
X176347961Y-149374700D02*
X176499212Y-149715295D01*
X215841121Y-126733990D02*
X215886889Y-126823175D01*
X215772982Y-126619138D02*
X215841121Y-126733990D01*
X222275220Y-141166070D02*
X222579743Y-141058034D01*
X211210723Y-111067786D02*
X214899572Y-121202829D01*
X216460871Y-125191299D02*
X216765408Y-125083263D01*
X178104288Y-126604545D02*
X179525740Y-129652887D01*
X175502243Y-147833985D02*
X175683503Y-148124717D01*
X171813068Y-122903431D02*
X171880247Y-123126017D01*
X172040791Y-124011461D02*
X172054824Y-124223740D01*
X206030974Y-182856802D02*
X197682704Y-182856807D01*
X216700973Y-188486804D02*
X215604654Y-188486806D01*
X175300284Y-147529482D02*
X175502243Y-147833985D01*
X171980447Y-123564683D02*
X172014126Y-123776709D01*
X176499212Y-149715295D02*
X176626370Y-150025719D01*
X174884897Y-146956415D02*
X175102505Y-147248217D01*
X174210257Y-146147980D02*
X174438793Y-146407146D01*
X177067690Y-151368908D02*
X177163602Y-151759025D01*
X178299480Y-108827557D02*
X174610632Y-118962595D01*
X215048275Y-125583044D02*
X215749447Y-125368670D01*
X215671355Y-126473241D02*
X215772982Y-126619138D01*
X175869181Y-148441450D02*
X176033215Y-148740381D01*
X179572164Y-108106688D02*
X179708618Y-108080954D01*
X220862616Y-141557810D02*
X221563783Y-141343450D01*
X224009935Y-125520895D02*
X225536369Y-126232688D01*
X176033215Y-148740381D02*
X176201939Y-149069060D01*
X166769581Y-138674842D02*
X167428580Y-138996262D01*
X175683503Y-148124717D02*
X175869181Y-148441450D01*
X215749447Y-125368670D02*
X216460871Y-125191299D01*
X177266206Y-152276362D02*
X177266198Y-190974934D01*
X176626370Y-150025719D02*
X176759602Y-150378892D01*
X175102505Y-147248217D02*
X175300284Y-147529482D01*
X177163602Y-151759025D02*
X177225767Y-152053925D01*
X171933149Y-123335422D02*
X171980447Y-123564683D01*
X221563783Y-141343450D02*
X222275220Y-141166070D01*
X171565308Y-122285977D02*
X174594660Y-123388575D01*
X167428580Y-138996262D02*
X167731322Y-139109202D01*
X176201939Y-149069060D02*
X176347961Y-149374700D01*
X215582679Y-126362247D02*
X215671355Y-126473241D01*
X214300979Y-187946803D02*
X211459575Y-185105401D01*
X171880247Y-123126017D02*
X171933149Y-123335422D01*
X172014126Y-123776709D02*
X172040791Y-124011461D01*
X172999575Y-144101124D02*
X173711415Y-145627668D01*
X179708618Y-108080954D02*
X179812042Y-108067953D01*
X172054824Y-124223740D02*
X167733071Y-136097668D01*
X174438793Y-146407146D02*
X174671348Y-146685722D01*
X174671348Y-146685722D02*
X174884897Y-146956415D01*
X174610632Y-118962595D02*
G75*
G02*
X171565315Y-122285993I-5534432J2014395D01*
G01*
X167733071Y-136097668D02*
G75*
G02*
X165750958Y-138260721I-3602171J1311168D01*
G01*
X217060461Y-124989070D02*
G75*
G02*
X224009927Y-125520913I2772539J-9441330D01*
G01*
X214899572Y-121202829D02*
G75*
G02*
X214702981Y-125706186I-5534372J-2014371D01*
G01*
X217060461Y-124989070D02*
X216765408Y-125083263D01*
X221820719Y-186366136D02*
G75*
G03*
X216700953Y-188486784I-19J-7240464D01*
G01*
X174594660Y-123388575D02*
G75*
G02*
X178104281Y-126604548I-2127260J-5844525D01*
G01*
X220600577Y-139773896D02*
G75*
G02*
X220517305Y-141680944I-2343677J-853004D01*
G01*
X167731322Y-139109202D02*
G75*
G02*
X172999616Y-144101105I-3668722J-9147798D01*
G01*
X197682704Y-182856807D02*
G75*
G03*
X177096863Y-191383730I-4J-29112793D01*
G01*
X222579743Y-141058034D02*
G75*
G02*
X229824269Y-141495688I3069657J-9366166D01*
G01*
X205992577Y-154990411D02*
G75*
G03*
X220517299Y-141680941I-8803577J24187611D01*
G01*
X203968486Y-108067952D02*
G75*
G02*
X211210748Y-111067763I14J-10242148D01*
G01*
X211459575Y-185105401D02*
G75*
G03*
X206030974Y-182856819I-5428575J-5428599D01*
G01*
X215604654Y-188486806D02*
G75*
G02*
X214300994Y-187946788I46J1843706D01*
G01*
%TO.N,pinky_bottom*%
X94146025Y-129627457D02*
X94419698Y-129675712D01*
X88721252Y-134214782D02*
G75*
G02*
X91364791Y-130244027I6378748J-1381318D01*
G01*
X91364803Y-130244044D02*
G75*
G02*
X94146024Y-129627460I2134897J-3048956D01*
G01*
%TO.N,ring_bottom*%
X108773673Y-127265322D02*
G75*
G02*
X114301162Y-120316275I11152027J-3197778D01*
G01*
%TO.N,ring_home*%
X113526057Y-110691796D02*
G75*
G02*
X118890898Y-103947300I10823643J-3103604D01*
G01*
%TO.N,ring_top*%
X118278441Y-94118275D02*
G75*
G02*
X123480589Y-87578255I10495559J-3009525D01*
G01*
%TO.N,middle_bottom*%
X133292876Y-122343966D02*
X134157408Y-121940831D01*
X127413184Y-128760524D02*
G75*
G02*
X133292883Y-122343982I10685216J-3889076D01*
G01*
%TO.N,middle_home*%
X139004549Y-106339041D02*
X139877779Y-105931854D01*
X133317729Y-112545118D02*
G75*
G02*
X139004538Y-106339018I10334771J-3761482D01*
G01*
%TO.N,middle_top*%
X145046391Y-90258187D02*
X145692124Y-89957076D01*
X139041863Y-96810975D02*
G75*
G02*
X145046381Y-90258166I10912237J-3971725D01*
G01*
%TO.N,index_bottom*%
X148941004Y-132289673D02*
X149541427Y-132009692D01*
X142874062Y-138910576D02*
G75*
G02*
X148941004Y-132289674I11025638J-4013024D01*
G01*
%TO.N,index_home*%
X154755347Y-116314911D02*
X155355767Y-116034919D01*
X148688400Y-122935804D02*
G75*
G02*
X154755344Y-116314905I11025600J-4012996D01*
G01*
%TO.N,index_top*%
X160444862Y-100476354D02*
X161264066Y-100094345D01*
X154502746Y-106961032D02*
G75*
G02*
X160444872Y-100476375I10798754J-3930468D01*
G01*
%TO.N,tucky_default*%
X134877848Y-160879993D02*
G75*
G02*
X140951511Y-154251774I11037752J-4017407D01*
G01*
%TO.N,comfy_default*%
X154884182Y-167866638D02*
G75*
G02*
X158711787Y-164929627I5459118J-3151862D01*
G01*
%TO.N,reachy_default*%
X171357975Y-181121786D02*
X172429164Y-179845192D01*
X172429164Y-179845192D02*
G75*
G02*
X175826562Y-178076658I3833536J-3216808D01*
G01*
%TO.N,mirror_pinky_bottom*%
X290259672Y-136869042D02*
X289509591Y-134808208D01*
%TO.N,mirror_ring_bottom*%
X271027249Y-132019465D02*
G75*
G02*
X271721982Y-123191904I11003151J3575165D01*
G01*
%TO.N,mirror_ring_home*%
X267110527Y-107321832D02*
X267419754Y-106714928D01*
X266431142Y-115954179D02*
G75*
G02*
X267110530Y-107321833I10759858J3496079D01*
G01*
%TO.N,mirror_ring_top*%
X262114658Y-91153423D02*
X262360613Y-90625958D01*
X261745308Y-99612725D02*
G75*
G02*
X262114644Y-91153416I10395992J3783825D01*
G01*
%TO.N,mirror_middle_bottom*%
X253082853Y-125654229D02*
X253481080Y-124800237D01*
X252700103Y-134420962D02*
G75*
G02*
X253082844Y-125654225I10773697J3921362D01*
G01*
%TO.N,mirror_middle_home*%
X247235791Y-110428904D02*
X248034087Y-108716941D01*
X246885750Y-118446185D02*
G75*
G02*
X247235806Y-110428911I9852650J3586085D01*
G01*
%TO.N,mirror_middle_top*%
X241032707Y-102365076D02*
G75*
G02*
X241438119Y-93079872I11410943J4153226D01*
G01*
%TO.N,mirror_index_bottom*%
X237642930Y-135324319D02*
X237757956Y-135077674D01*
X237239216Y-144571019D02*
G75*
G02*
X237642931Y-135324320I11363684J4136019D01*
G01*
%TO.N,mirror_index_home*%
X231835365Y-119194458D02*
X231868441Y-119123504D01*
X231424869Y-128596251D02*
G75*
G02*
X231835368Y-119194459I11554181J4205381D01*
G01*
%TO.N,mirror_index_top*%
X226076045Y-103603629D02*
X226336008Y-103046133D01*
X225696831Y-112288917D02*
G75*
G02*
X226076028Y-103603621I10673669J3884917D01*
G01*
%TO.N,mirror_tucky_default*%
X245731421Y-158870806D02*
X246464780Y-157298099D01*
X245379295Y-166935704D02*
G75*
G02*
X245731417Y-158870804I9911205J3607404D01*
G01*
%TO.N,mirror_comfy_default*%
X225668421Y-171659982D02*
X225875887Y-169288604D01*
X227755831Y-178280403D02*
G75*
G02*
X225668427Y-171659983I6947769J5829903D01*
G01*
%TO.N,mirror_reachy_default*%
X213459419Y-193623884D02*
G75*
G02*
X209210237Y-185461265I7728481J9210484D01*
G01*
%TO.N,pinky_top*%
X100507546Y-96208620D02*
X100656344Y-95364742D01*
X102354177Y-104538229D02*
G75*
G02*
X100507516Y-96208615I9131423J6393929D01*
G01*
%TO.N,inner_top*%
X188483127Y-116737921D02*
X188158308Y-117630350D01*
X188400483Y-114845215D02*
G75*
G02*
X188483107Y-116737914I-2243383J-1046085D01*
G01*
%TO.N,mirror_outer_top*%
X316687304Y-100199713D02*
X316607858Y-100313184D01*
X318101533Y-93820578D02*
G75*
G02*
X316687295Y-100199706I-8407433J-1482422D01*
G01*
%TO.N,mirror_inner_top*%
X219985282Y-117547451D02*
X217796976Y-117933310D01*
X222790716Y-115732725D02*
X222749773Y-115786278D01*
X222816623Y-109184778D02*
X223448237Y-112766836D01*
X222749773Y-115786278D02*
G75*
G02*
X219985280Y-117547442I-3508173J2456478D01*
G01*
X223448237Y-112766836D02*
G75*
G02*
X222790731Y-115732736I-3908937J-689264D01*
G01*
%TD*%
M02*
