M48
; DRILL file {KiCad 9.0.2} date 2025-06-13T21:11:23+0200
; FORMAT={-:-/ absolute / metric / decimal}
; #@! TF.CreationDate,2025-06-13T21:11:23+02:00
; #@! TF.GenerationSoftware,Kicad,Pcbnew,9.0.2
; #@! TF.FileFunction,Plated,1,2,PTH
FMAT,2
METRIC
; #@! TA.AperFunction,Plated,PTH,ViaDrill
T1C0.400
; #@! TA.AperFunction,Plated,PTH,ComponentDrill
T2C1.092
; #@! TA.AperFunction,Plated,PTH,ComponentDrill
T3C1.270
%
G90
G05
T1
X85.657Y-139.732
X93.862Y-96.694
X94.42Y-129.676
X100.656Y-95.365
X103.913Y-138.693
X114.301Y-120.316
X118.891Y-103.947
X119.497Y-135.873
X123.481Y-87.578
X134.157Y-121.941
X139.878Y-105.932
X140.952Y-154.252
X145.692Y-89.957
X149.541Y-132.01
X155.356Y-116.035
X158.712Y-164.93
X161.264Y-100.094
X172.167Y-161.037
X175.798Y-158.418
X175.827Y-178.077
X188.158Y-117.63
X209.21Y-185.461
X211.361Y-180.377
X217.797Y-117.933
X225.876Y-169.289
X226.336Y-103.046
X228.675Y-152.546
X231.868Y-119.124
X231.974Y-144.416
X237.758Y-135.078
X241.438Y-93.08
X246.465Y-157.298
X247.587Y-147.163
X248.034Y-108.717
X253.481Y-124.8
X256.592Y-147.45
X262.361Y-90.626
X267.42Y-106.715
X271.722Y-123.192
X282.298Y-137.323
X289.51Y-134.808
X296.477Y-141.048
X297.127Y-142.487
X316.608Y-100.313
T2
X190.213Y-137.407
X190.213Y-132.327
X190.213Y-134.867
X190.213Y-145.027
X190.213Y-150.107
X190.213Y-152.647
X190.213Y-155.187
X190.213Y-129.787
X190.213Y-147.567
X190.213Y-127.247
X190.213Y-139.947
X190.213Y-142.487
X205.453Y-139.947
X205.453Y-142.487
X205.453Y-155.187
X205.453Y-134.867
X205.453Y-152.647
X205.453Y-127.247
X205.453Y-129.787
X205.453Y-132.327
X205.453Y-137.407
X205.453Y-147.567
X205.453Y-150.107
X205.453Y-145.027
T3
X75.623Y-123.687
X78.575Y-106.946
X80.182Y-126.624
X83.134Y-109.882
X84.742Y-129.56
X87.694Y-112.818
X94.843Y-118.344
X97.795Y-101.602
X99.402Y-121.28
X102.354Y-104.538
X103.962Y-124.216
X106.914Y-107.475
X165.751Y-138.261
X169.731Y-141.944
X171.565Y-122.286
X173.711Y-145.628
X175.546Y-125.969
X179.526Y-129.653
X214.703Y-125.706
X220.12Y-125.969
X220.517Y-141.681
X225.536Y-126.233
X225.934Y-141.944
X231.351Y-142.207
X288.022Y-103.338
X290.974Y-120.08
X293.311Y-104.538
X296.263Y-121.28
X298.6Y-105.738
X301.552Y-122.48
X307.242Y-108.682
X310.194Y-125.424
X312.531Y-109.882
X315.483Y-126.624
X317.82Y-111.082
X320.772Y-127.824
M30
