0
SECTION
2
HEADER
9
$INSUNITS
70
4
0
ENDSEC
0
SECTION
2
TABLES
0
TABLE
2
LTYPE
0
LTYPE
72
65
70
64
2
CONTINUOUS
3
______
73
0
40
0
0
ENDTAB
0
TABLE
2
LAYER
0
ENDTAB
0
ENDSEC
0
SECTION
2
ENTITIES
0
LINE
8
0
10
216.2934059
20
-182.861643
11
202.1423202
21
-174.3976769
0
LINE
8
0
10
196.9628823
20
-174.425763
11
183.3044068
21
-182.7975319
0
LINE
8
0
10
176.8612733
20
-181.7485256
11
166.9155961
21
-169.8957291
0
LINE
8
0
10
165.8554991
20
-168.9471671
11
150.5674926
21
-158.7730672
0
LINE
8
0
10
149.5074681
20
-158.2371041
11
134.4236567
21
-152.7470458
0
LINE
8
0
10
131.4352941
20
-146.3384821
11
133.1111928
21
-141.7339881
0
LINE
8
0
10
133.1111928
20
-141.7339881
11
119.301387
21
-135.9012493
0
LINE
8
0
10
119.1339685
20
-135.8340707
11
108.7311072
21
-131.8761437
0
LINE
8
0
10
107.7939907
20
-131.6205529
11
90.5448093
21
-128.6777684
0
LINE
8
0
10
72.8045771
20
-125.5497652
11
90.5174403
21
-128.6730209
0
LINE
8
0
10
68.7487793
20
-119.7574855
11
77.0352449
21
-72.7626041
0
LINE
8
0
10
80.7947812
20
-68.7683422
11
98.89615
21
-64.4333128
0
LINE
8
0
10
99.7934465
20
-64.3029606
11
123.2757004
21
-63.046245
0
LINE
8
0
10
124.0055969
20
-63.0605543
11
145.2519847
21
-65.0351274
0
LINE
8
0
10
146.2096166
20
-65.2196472
11
162.7729798
21
-70.1268635
0
LINE
8
0
10
163.2784248
20
-70.3066268
11
181.7724139
21
-78.025114
0
LINE
8
0
10
182.1584903
20
-78.205938
11
197.4789842
21
-86.194904
0
LINE
8
0
10
202.1026722
20
-86.194904
11
217.4231661
21
-78.205938
0
LINE
8
0
10
217.8092425
20
-78.025114
11
236.3032316
21
-70.3066268
0
LINE
8
0
10
236.8086766
20
-70.1268635
11
253.3720398
21
-65.2196472
0
LINE
8
0
10
254.3296717
20
-65.0351274
11
275.5760595
21
-63.0605543
0
LINE
8
0
10
276.305956
20
-63.046245
11
299.7882099
21
-64.3029606
0
LINE
8
0
10
300.6855064
20
-64.4333128
11
318.7868752
21
-68.7683422
0
LINE
8
0
10
322.5464115
20
-72.7626041
11
330.8328771
21
-119.7574855
0
LINE
8
0
10
309.0642161
20
-128.6730209
11
326.7770793
21
-125.5497652
0
LINE
8
0
10
309.0368471
20
-128.6777684
11
291.7876657
21
-131.6205529
0
LINE
8
0
10
290.8505492
20
-131.8761437
11
280.4476879
21
-135.8340707
0
LINE
8
0
10
280.2802694
20
-135.9012493
11
270.8492585
21
-139.884551
0
LINE
8
0
10
268.0962023
20
-146.2006685
11
268.1463623
21
-146.3384821
0
LINE
8
0
10
265.1579997
20
-152.7470458
11
250.0741883
21
-158.2371041
0
LINE
8
0
10
249.0141638
20
-158.7730672
11
233.7261573
21
-168.9471671
0
LINE
8
0
10
232.6660603
20
-169.8957291
11
222.6901545
21
-181.7845507
0
ARC
8
0
10
199.5757937
20
-178.6887073
40
5
50
59.1157547
51
121.5056254
0
ARC
8
0
10
180.6914954
20
-178.5345875
40
5
50
220.0000012
51
301.5056254
0
ARC
8
0
10
163.085374
20
-173.1096672
40
5
50
40.0000012
51
56.3564136
0
ARC
8
0
10
147.7973675
20
-162.9355673
40
5
50
56.3564136
51
70.0000019
0
ARC
8
0
10
136.1337572
20
-148.0485826
40
5
50
160.0000019
51
250.0000019
0
ARC
8
0
10
117.35598
20
-140.5072662
40
5
50
67.102647
51
69.1699192
0
ARC
8
0
10
106.9531187
20
-136.5493393
40
5
50
69.1699192
51
80.3183087
0
ARC
8
0
10
91.3856813
20
-123.7489821
40
5
50
259.9999992
51
260.3183087
0
ARC
8
0
10
73.6728181
20
-120.6257264
40
5
50
169.9999992
51
259.9999992
0
ARC
8
0
10
81.9592837
20
-73.630845
40
5
50
103.4678963
51
169.9999992
0
ARC
8
0
10
100.0606525
20
-69.2958156
40
5
50
93.0634146
51
103.4678963
0
ARC
8
0
10
123.5429064
20
-68.0391
40
5
50
84.6903607
51
93.0634146
0
ARC
8
0
10
144.7892942
20
-70.0136731
40
5
50
73.4970631
51
84.6903607
0
ARC
8
0
10
161.3526573
20
-74.9208893
40
5
50
67.3467294
51
73.4970631
0
ARC
8
0
10
179.8466463
20
-82.6393765
40
5
50
62.459932
51
67.3467294
0
ARC
8
0
10
199.7908282
20
-81.7614654
40
5
50
242.459932
51
297.540068
0
ARC
8
0
10
219.7350101
20
-82.6393765
40
5
50
112.6532706
51
117.540068
0
ARC
8
0
10
238.2289991
20
-74.9208893
40
5
50
106.5029369
51
112.6532706
0
ARC
8
0
10
254.7923622
20
-70.0136731
40
5
50
95.3096393
51
106.5029369
0
ARC
8
0
10
276.03875
20
-68.0391
40
5
50
86.9365854
51
95.3096393
0
ARC
8
0
10
299.5210039
20
-69.2958156
40
5
50
76.5321037
51
86.9365854
0
ARC
8
0
10
317.6223727
20
-73.630845
40
5
50
10.0000008
51
76.5321037
0
ARC
8
0
10
325.9088383
20
-120.6257264
40
5
50
280.0000008
51
10.0000008
0
ARC
8
0
10
308.1959751
20
-123.7489821
40
5
50
279.6816913
51
280.0000008
0
ARC
8
0
10
292.6285377
20
-136.5493393
40
5
50
99.6816913
51
110.8300808
0
ARC
8
0
10
282.2256764
20
-140.5072662
40
5
50
110.8300808
51
112.897353
0
ARC
8
0
10
272.7946655
20
-144.4905679
40
5
50
112.897353
51
199.9999981
0
ARC
8
0
10
263.4478992
20
-148.0485826
40
5
50
289.9999981
51
19.9999981
0
ARC
8
0
10
251.7842889
20
-162.9355673
40
5
50
109.9999981
51
123.6435864
0
ARC
8
0
10
236.4962824
20
-173.1096672
40
5
50
123.6435864
51
139.9999988
0
ARC
8
0
10
218.8599324
20
-178.5706126
40
5
50
239.1157547
51
319.9999988
0
ENDSEC
0
EOF