0
SECTION
2
HEADER
9
$INSUNITS
70
4
0
ENDSEC
0
SECTION
2
TABLES
0
TABLE
2
LTYPE
0
LTYPE
72
65
70
64
2
CONTINUOUS
3
______
73
0
40
0
0
ENDTAB
0
TABLE
2
LAYER
0
ENDTAB
0
ENDSEC
0
SECTION
2
ENTITIES
0
LINE
8
0
10
216.2934059
20
-182.861643
11
202.1423202
21
-174.3976769
0
LINE
8
0
10
196.9628823
20
-174.425763
11
183.3044068
21
-182.7975319
0
LINE
8
0
10
176.8612733
20
-181.7485256
11
166.9155961
21
-169.8957291
0
LINE
8
0
10
165.8554991
20
-168.9471671
11
150.5674926
21
-158.7730672
0
LINE
8
0
10
149.5074681
20
-158.2371041
11
134.4236567
21
-152.7470458
0
LINE
8
0
10
131.4352941
20
-146.3384821
11
133.1111928
21
-141.7339881
0
LINE
8
0
10
133.1111928
20
-141.7339881
11
119.301387
21
-135.9012493
0
LINE
8
0
10
119.1339685
20
-135.8340707
11
108.7311072
21
-131.8761437
0
LINE
8
0
10
107.7939907
20
-131.6205529
11
90.5448093
21
-128.6777684
0
LINE
8
0
10
72.8045771
20
-125.5497652
11
90.5174403
21
-128.6730209
0
LINE
8
0
10
68.7487793
20
-119.7574855
11
77.0352449
21
-72.7626041
0
LINE
8
0
10
80.7947812
20
-68.7683422
11
98.89615
21
-64.4333128
0
LINE
8
0
10
99.7934465
20
-64.3029606
11
123.2757004
21
-63.046245
0
LINE
8
0
10
124.0055969
20
-63.0605543
11
145.2519847
21
-65.0351274
0
LINE
8
0
10
146.2096166
20
-65.2196472
11
162.7729798
21
-70.1268635
0
LINE
8
0
10
163.2784248
20
-70.3066268
11
181.7724139
21
-78.025114
0
LINE
8
0
10
182.1584903
20
-78.205938
11
197.4789842
21
-86.194904
0
LINE
8
0
10
202.1026722
20
-86.194904
11
217.4231661
21
-78.205938
0
LINE
8
0
10
217.8092425
20
-78.025114
11
236.3032316
21
-70.3066268
0
LINE
8
0
10
236.8086766
20
-70.1268635
11
253.3720398
21
-65.2196472
0
LINE
8
0
10
254.3296717
20
-65.0351274
11
275.5760595
21
-63.0605543
0
LINE
8
0
10
276.305956
20
-63.046245
11
299.7882099
21
-64.3029606
0
LINE
8
0
10
300.6855064
20
-64.4333128
11
318.7868752
21
-68.7683422
0
LINE
8
0
10
322.5464115
20
-72.7626041
11
330.8328771
21
-119.7574855
0
LINE
8
0
10
309.0642161
20
-128.6730209
11
326.7770793
21
-125.5497652
0
LINE
8
0
10
309.0368471
20
-128.6777684
11
291.7876657
21
-131.6205529
0
LINE
8
0
10
290.8505492
20
-131.8761437
11
280.4476879
21
-135.8340707
0
LINE
8
0
10
280.2802694
20
-135.9012493
11
270.8492585
21
-139.884551
0
LINE
8
0
10
268.0962023
20
-146.2006685
11
268.1463623
21
-146.3384821
0
LINE
8
0
10
265.1579997
20
-152.7470458
11
250.0741883
21
-158.2371041
0
LINE
8
0
10
249.0141638
20
-158.7730672
11
233.7261573
21
-168.9471671
0
LINE
8
0
10
232.6660603
20
-169.8957291
11
222.6901545
21
-181.7845507
0
ARC
8
0
10
199.5757937
20
-178.6887073
40
5
50
59.1157547
51
121.5056254
0
ARC
8
0
10
180.6914954
20
-178.5345875
40
5
50
220.0000012
51
301.5056254
0
ARC
8
0
10
163.085374
20
-173.1096672
40
5
50
40.0000012
51
56.3564136
0
ARC
8
0
10
147.7973675
20
-162.9355673
40
5
50
56.3564136
51
70.0000019
0
ARC
8
0
10
136.1337572
20
-148.0485826
40
5
50
160.0000019
51
250.0000019
0
ARC
8
0
10
117.35598
20
-140.5072662
40
5
50
67.102647
51
69.1699192
0
ARC
8
0
10
106.9531187
20
-136.5493393
40
5
50
69.1699192
51
80.3183087
0
ARC
8
0
10
91.3856813
20
-123.7489821
40
5
50
259.9999992
51
260.3183087
0
ARC
8
0
10
73.6728181
20
-120.6257264
40
5
50
169.9999992
51
259.9999992
0
ARC
8
0
10
81.9592837
20
-73.630845
40
5
50
103.4678963
51
169.9999992
0
ARC
8
0
10
100.0606525
20
-69.2958156
40
5
50
93.0634146
51
103.4678963
0
ARC
8
0
10
123.5429064
20
-68.0391
40
5
50
84.6903607
51
93.0634146
0
ARC
8
0
10
144.7892942
20
-70.0136731
40
5
50
73.4970631
51
84.6903607
0
ARC
8
0
10
161.3526573
20
-74.9208893
40
5
50
67.3467294
51
73.4970631
0
ARC
8
0
10
179.8466463
20
-82.6393765
40
5
50
62.459932
51
67.3467294
0
ARC
8
0
10
199.7908282
20
-81.7614654
40
5
50
242.459932
51
297.540068
0
ARC
8
0
10
219.7350101
20
-82.6393765
40
5
50
112.6532706
51
117.540068
0
ARC
8
0
10
238.2289991
20
-74.9208893
40
5
50
106.5029369
51
112.6532706
0
ARC
8
0
10
254.7923622
20
-70.0136731
40
5
50
95.3096393
51
106.5029369
0
ARC
8
0
10
276.03875
20
-68.0391
40
5
50
86.9365854
51
95.3096393
0
ARC
8
0
10
299.5210039
20
-69.2958156
40
5
50
76.5321037
51
86.9365854
0
ARC
8
0
10
317.6223727
20
-73.630845
40
5
50
10.0000008
51
76.5321037
0
ARC
8
0
10
325.9088383
20
-120.6257264
40
5
50
280.0000008
51
10.0000008
0
ARC
8
0
10
308.1959751
20
-123.7489821
40
5
50
279.6816913
51
280.0000008
0
ARC
8
0
10
292.6285377
20
-136.5493393
40
5
50
99.6816913
51
110.8300808
0
ARC
8
0
10
282.2256764
20
-140.5072662
40
5
50
110.8300808
51
112.897353
0
ARC
8
0
10
272.7946655
20
-144.4905679
40
5
50
112.897353
51
199.9999981
0
ARC
8
0
10
263.4478992
20
-148.0485826
40
5
50
289.9999981
51
19.9999981
0
ARC
8
0
10
251.7842889
20
-162.9355673
40
5
50
109.9999981
51
123.6435864
0
ARC
8
0
10
236.4962824
20
-173.1096672
40
5
50
123.6435864
51
139.9999988
0
ARC
8
0
10
218.8599324
20
-178.5706126
40
5
50
239.1157547
51
319.9999988
0
LINE
8
0
10
71.3559062
20
-122.2480456
11
88.097638
21
-125.2000646
0
LINE
8
0
10
88.097638
20
-125.2000646
11
90.8760088
21
-109.4431406
0
LINE
8
0
10
90.8760088
20
-109.4431406
11
74.134277
21
-106.4911216
0
LINE
8
0
10
74.134277
20
-106.4911216
11
71.3559062
21
-122.2480456
0
LINE
8
0
10
74.3079253
20
-105.5063138
11
91.0496571
21
-108.4583328
0
LINE
8
0
10
91.0496571
20
-108.4583328
11
93.8280279
21
-92.7014088
0
LINE
8
0
10
93.8280279
20
-92.7014088
11
77.0862961
21
-89.7493898
0
LINE
8
0
10
77.0862961
20
-89.7493898
11
74.3079253
21
-105.5063138
0
LINE
8
0
10
77.2599443
20
-88.764582
11
94.0016761
21
-91.716601
0
LINE
8
0
10
94.0016761
20
-91.716601
11
96.7800469
21
-75.959677
0
LINE
8
0
10
96.7800469
20
-75.959677
11
80.0383151
21
-73.007658
0
LINE
8
0
10
80.0383151
20
-73.007658
11
77.2599443
21
-88.764582
0
LINE
8
0
10
89.6728496
20
-122.0253664
11
106.4145814
21
-124.9773854
0
LINE
8
0
10
106.4145814
20
-124.9773854
11
109.1929522
21
-109.2204614
0
LINE
8
0
10
109.1929522
20
-109.2204614
11
92.4512204
21
-106.2684424
0
LINE
8
0
10
92.4512204
20
-106.2684424
11
89.6728496
21
-122.0253664
0
LINE
8
0
10
92.6248686
20
-105.2836346
11
109.3666004
21
-108.2356536
0
LINE
8
0
10
109.3666004
20
-108.2356536
11
112.1449712
21
-92.4787296
0
LINE
8
0
10
112.1449712
20
-92.4787296
11
95.4032394
21
-89.5267106
0
LINE
8
0
10
95.4032394
20
-89.5267106
11
92.6248686
21
-105.2836346
0
LINE
8
0
10
95.5768876
20
-88.5419028
11
112.3186194
21
-91.4939218
0
LINE
8
0
10
112.3186194
20
-91.4939218
11
115.0969902
21
-75.7369978
0
LINE
8
0
10
115.0969902
20
-75.7369978
11
98.3552584
21
-72.7849788
0
LINE
8
0
10
98.3552584
20
-72.7849788
11
95.5768876
21
-88.5419028
0
LINE
8
0
10
109.2098221
20
-115.1687622
11
125.551271
21
-119.8545973
0
LINE
8
0
10
125.551271
20
-119.8545973
11
129.9614687
21
-104.4744102
0
LINE
8
0
10
129.9614687
20
-104.4744102
11
113.6200198
21
-99.7885751
0
LINE
8
0
10
113.6200198
20
-99.7885751
11
109.2098221
21
-115.1687622
0
LINE
8
0
10
113.8956571
20
-98.8273133
11
130.237106
21
-103.5131484
0
LINE
8
0
10
130.237106
20
-103.5131484
11
134.6473037
21
-88.1329613
0
LINE
8
0
10
134.6473037
20
-88.1329613
11
118.3058548
21
-83.4471262
0
LINE
8
0
10
118.3058548
20
-83.4471262
11
113.8956571
21
-98.8273133
0
LINE
8
0
10
118.5814922
20
-82.4858645
11
134.9229411
21
-87.1716996
0
LINE
8
0
10
134.9229411
20
-87.1716996
11
139.3331388
21
-71.7915125
0
LINE
8
0
10
139.3331388
20
-71.7915125
11
122.9916899
21
-67.1056774
0
LINE
8
0
10
122.9916899
20
-67.1056774
11
118.5814922
21
-82.4858645
0
LINE
8
0
10
127.7063983
20
-116.0888482
11
143.6811728
21
-121.9031907
0
LINE
8
0
10
143.6811728
20
-121.9031907
11
149.1534951
21
-106.8681088
0
LINE
8
0
10
149.1534951
20
-106.8681088
11
133.1787206
21
-101.0537663
0
LINE
8
0
10
133.1787206
20
-101.0537663
11
127.7063983
21
-116.0888482
0
LINE
8
0
10
133.5207407
20
-100.1140736
11
149.4955152
21
-105.9284161
0
LINE
8
0
10
149.4955152
20
-105.9284161
11
154.9678375
21
-90.8933342
0
LINE
8
0
10
154.9678375
20
-90.8933342
11
138.993063
21
-85.0789917
0
LINE
8
0
10
138.993063
20
-85.0789917
11
133.5207407
21
-100.1140736
0
LINE
8
0
10
139.3350831
20
-84.139299
11
155.3098576
21
-89.9536415
0
LINE
8
0
10
155.3098576
20
-89.9536415
11
160.7821799
21
-74.9185596
0
LINE
8
0
10
160.7821799
20
-74.9185596
11
144.8074054
21
-69.1042171
0
LINE
8
0
10
144.8074054
20
-69.1042171
11
139.3350831
21
-84.139299
0
LINE
8
0
10
143.1672798
20
-126.2389044
11
159.1420543
21
-132.0532469
0
LINE
8
0
10
159.1420543
20
-132.0532469
11
164.6143766
21
-117.018165
0
LINE
8
0
10
164.6143766
20
-117.018165
11
148.6396021
21
-111.2038225
0
LINE
8
0
10
148.6396021
20
-111.2038225
11
143.1672798
21
-126.2389044
0
LINE
8
0
10
148.9816222
20
-110.2641299
11
164.9563967
21
-116.0784724
0
LINE
8
0
10
164.9563967
20
-116.0784724
11
170.428719
21
-101.0433905
0
LINE
8
0
10
170.428719
20
-101.0433905
11
154.4539445
21
-95.229048
0
LINE
8
0
10
154.4539445
20
-95.229048
11
148.9816222
21
-110.2641299
0
LINE
8
0
10
154.7959646
20
-94.2893553
11
170.7707391
21
-100.1036978
0
LINE
8
0
10
170.7707391
20
-100.1036978
11
176.2430614
21
-85.0686159
0
LINE
8
0
10
176.2430614
20
-85.0686159
11
160.2682869
21
-79.2542734
0
LINE
8
0
10
160.2682869
20
-79.2542734
11
154.7959646
21
-94.2893553
0
LINE
8
0
10
158.9479502
20
-135.5103481
11
174.9227247
21
-141.3246906
0
LINE
8
0
10
174.9227247
20
-141.3246906
11
180.395047
21
-126.2896087
0
LINE
8
0
10
180.395047
20
-126.2896087
11
164.4202725
21
-120.4752662
0
LINE
8
0
10
164.4202725
20
-120.4752662
11
158.9479502
21
-135.5103481
0
LINE
8
0
10
164.7622926
20
-119.5355736
11
180.7370671
21
-125.3499161
0
LINE
8
0
10
180.7370671
20
-125.3499161
11
186.2093894
21
-110.3148342
0
LINE
8
0
10
186.2093894
20
-110.3148342
11
170.2346149
21
-104.5004917
0
LINE
8
0
10
170.2346149
20
-104.5004917
11
164.7622926
21
-119.5355736
0
LINE
8
0
10
170.576635
20
-103.560799
11
186.5514095
21
-109.3751415
0
LINE
8
0
10
186.5514095
20
-109.3751415
11
192.0237318
21
-94.3400596
0
LINE
8
0
10
192.0237318
20
-94.3400596
11
176.0489573
21
-88.5257171
0
LINE
8
0
10
176.0489573
20
-88.5257171
11
170.576635
21
-103.560799
0
LINE
8
0
10
135.0272004
20
-148.6035888
11
151.0019749
21
-154.4179313
0
LINE
8
0
10
151.0019749
20
-154.4179313
11
156.4742972
21
-139.3828494
0
LINE
8
0
10
156.4742972
20
-139.3828494
11
140.4995227
21
-133.5685069
0
LINE
8
0
10
140.4995227
20
-133.5685069
11
135.0272004
21
-148.6035888
0
LINE
8
0
10
153.688622
20
-155.5516361
11
167.6142068
21
-165.3024356
0
LINE
8
0
10
167.6142068
20
-165.3024356
11
176.7914298
21
-152.1960029
0
LINE
8
0
10
176.7914298
20
-152.1960029
11
162.865845
21
-142.4452034
0
LINE
8
0
10
162.865845
20
-142.4452034
11
153.688622
21
-155.5516361
0
LINE
8
0
10
169.9158844
20
-167.0928657
11
180.8432737
21
-180.1156212
0
LINE
8
0
10
180.8432737
20
-180.1156212
11
193.0999848
21
-169.8310195
0
LINE
8
0
10
193.0999848
20
-169.8310195
11
182.1725955
21
-156.808264
0
LINE
8
0
10
182.1725955
20
-156.808264
11
169.9158844
21
-167.0928657
0
LINE
8
0
10
311.4840184
20
-125.2000646
11
328.2257502
21
-122.2480456
0
LINE
8
0
10
328.2257502
20
-122.2480456
11
325.4473794
21
-106.4911216
0
LINE
8
0
10
325.4473794
20
-106.4911216
11
308.7056476
21
-109.4431406
0
LINE
8
0
10
308.7056476
20
-109.4431406
11
311.4840184
21
-125.2000646
0
LINE
8
0
10
308.5319993
20
-108.4583328
11
325.2737311
21
-105.5063138
0
LINE
8
0
10
325.2737311
20
-105.5063138
11
322.4953603
21
-89.7493898
0
LINE
8
0
10
322.4953603
20
-89.7493898
11
305.7536285
21
-92.7014088
0
LINE
8
0
10
305.7536285
20
-92.7014088
11
308.5319993
21
-108.4583328
0
LINE
8
0
10
305.5799803
20
-91.716601
11
322.3217121
21
-88.764582
0
LINE
8
0
10
322.3217121
20
-88.764582
11
319.5433413
21
-73.007658
0
LINE
8
0
10
319.5433413
20
-73.007658
11
302.8016095
21
-75.959677
0
LINE
8
0
10
302.8016095
20
-75.959677
11
305.5799803
21
-91.716601
0
LINE
8
0
10
293.167075
20
-124.9773854
11
309.9088068
21
-122.0253664
0
LINE
8
0
10
309.9088068
20
-122.0253664
11
307.130436
21
-106.2684424
0
LINE
8
0
10
307.130436
20
-106.2684424
11
290.3887042
21
-109.2204614
0
LINE
8
0
10
290.3887042
20
-109.2204614
11
293.167075
21
-124.9773854
0
LINE
8
0
10
290.215056
20
-108.2356536
11
306.9567878
21
-105.2836346
0
LINE
8
0
10
306.9567878
20
-105.2836346
11
304.178417
21
-89.5267106
0
LINE
8
0
10
304.178417
20
-89.5267106
11
287.4366852
21
-92.4787296
0
LINE
8
0
10
287.4366852
20
-92.4787296
11
290.215056
21
-108.2356536
0
LINE
8
0
10
287.263037
20
-91.4939218
11
304.0047688
21
-88.5419028
0
LINE
8
0
10
304.0047688
20
-88.5419028
11
301.226398
21
-72.7849788
0
LINE
8
0
10
301.226398
20
-72.7849788
11
284.4846662
21
-75.7369978
0
LINE
8
0
10
284.4846662
20
-75.7369978
11
287.263037
21
-91.4939218
0
LINE
8
0
10
274.0303854
20
-119.8545973
11
290.3718343
21
-115.1687622
0
LINE
8
0
10
290.3718343
20
-115.1687622
11
285.9616366
21
-99.7885751
0
LINE
8
0
10
285.9616366
20
-99.7885751
11
269.6201877
21
-104.4744102
0
LINE
8
0
10
269.6201877
20
-104.4744102
11
274.0303854
21
-119.8545973
0
LINE
8
0
10
269.3445504
20
-103.5131484
11
285.6859993
21
-98.8273133
0
LINE
8
0
10
285.6859993
20
-98.8273133
11
281.2758016
21
-83.4471262
0
LINE
8
0
10
281.2758016
20
-83.4471262
11
264.9343527
21
-88.1329613
0
LINE
8
0
10
264.9343527
20
-88.1329613
11
269.3445504
21
-103.5131484
0
LINE
8
0
10
264.6587153
20
-87.1716996
11
281.0001642
21
-82.4858645
0
LINE
8
0
10
281.0001642
20
-82.4858645
11
276.5899665
21
-67.1056774
0
LINE
8
0
10
276.5899665
20
-67.1056774
11
260.2485176
21
-71.7915125
0
LINE
8
0
10
260.2485176
20
-71.7915125
11
264.6587153
21
-87.1716996
0
LINE
8
0
10
255.9004836
20
-121.9031907
11
271.8752581
21
-116.0888482
0
LINE
8
0
10
271.8752581
20
-116.0888482
11
266.4029358
21
-101.0537663
0
LINE
8
0
10
266.4029358
20
-101.0537663
11
250.4281613
21
-106.8681088
0
LINE
8
0
10
250.4281613
20
-106.8681088
11
255.9004836
21
-121.9031907
0
LINE
8
0
10
250.0861412
20
-105.9284161
11
266.0609157
21
-100.1140736
0
LINE
8
0
10
266.0609157
20
-100.1140736
11
260.5885934
21
-85.0789917
0
LINE
8
0
10
260.5885934
20
-85.0789917
11
244.6138189
21
-90.8933342
0
LINE
8
0
10
244.6138189
20
-90.8933342
11
250.0861412
21
-105.9284161
0
LINE
8
0
10
244.2717988
20
-89.9536415
11
260.2465733
21
-84.139299
0
LINE
8
0
10
260.2465733
20
-84.139299
11
254.774251
21
-69.1042171
0
LINE
8
0
10
254.774251
20
-69.1042171
11
238.7994765
21
-74.9185596
0
LINE
8
0
10
238.7994765
20
-74.9185596
11
244.2717988
21
-89.9536415
0
LINE
8
0
10
240.4396021
20
-132.0532469
11
256.4143766
21
-126.2389044
0
LINE
8
0
10
256.4143766
20
-126.2389044
11
250.9420543
21
-111.2038225
0
LINE
8
0
10
250.9420543
20
-111.2038225
11
234.9672798
21
-117.018165
0
LINE
8
0
10
234.9672798
20
-117.018165
11
240.4396021
21
-132.0532469
0
LINE
8
0
10
234.6252597
20
-116.0784724
11
250.6000342
21
-110.2641299
0
LINE
8
0
10
250.6000342
20
-110.2641299
11
245.1277119
21
-95.229048
0
LINE
8
0
10
245.1277119
20
-95.229048
11
229.1529374
21
-101.0433905
0
LINE
8
0
10
229.1529374
20
-101.0433905
11
234.6252597
21
-116.0784724
0
LINE
8
0
10
228.8109173
20
-100.1036978
11
244.7856918
21
-94.2893553
0
LINE
8
0
10
244.7856918
20
-94.2893553
11
239.3133695
21
-79.2542734
0
LINE
8
0
10
239.3133695
20
-79.2542734
11
223.338595
21
-85.0686159
0
LINE
8
0
10
223.338595
20
-85.0686159
11
228.8109173
21
-100.1036978
0
LINE
8
0
10
224.6589317
20
-141.3246906
11
240.6337062
21
-135.5103481
0
LINE
8
0
10
240.6337062
20
-135.5103481
11
235.1613839
21
-120.4752662
0
LINE
8
0
10
235.1613839
20
-120.4752662
11
219.1866094
21
-126.2896087
0
LINE
8
0
10
219.1866094
20
-126.2896087
11
224.6589317
21
-141.3246906
0
LINE
8
0
10
218.8445893
20
-125.3499161
11
234.8193638
21
-119.5355736
0
LINE
8
0
10
234.8193638
20
-119.5355736
11
229.3470415
21
-104.5004917
0
LINE
8
0
10
229.3470415
20
-104.5004917
11
213.372267
21
-110.3148342
0
LINE
8
0
10
213.372267
20
-110.3148342
11
218.8445893
21
-125.3499161
0
LINE
8
0
10
213.0302469
20
-109.3751415
11
229.0050214
21
-103.560799
0
LINE
8
0
10
229.0050214
20
-103.560799
11
223.5326991
21
-88.5257171
0
LINE
8
0
10
223.5326991
20
-88.5257171
11
207.5579246
21
-94.3400596
0
LINE
8
0
10
207.5579246
20
-94.3400596
11
213.0302469
21
-109.3751415
0
LINE
8
0
10
248.5796815
20
-154.4179313
11
264.554456
21
-148.6035888
0
LINE
8
0
10
264.554456
20
-148.6035888
11
259.0821337
21
-133.5685069
0
LINE
8
0
10
259.0821337
20
-133.5685069
11
243.1073592
21
-139.3828494
0
LINE
8
0
10
243.1073592
20
-139.3828494
11
248.5796815
21
-154.4179313
0
LINE
8
0
10
231.9674496
20
-165.3024356
11
245.8930344
21
-155.5516361
0
LINE
8
0
10
245.8930344
20
-155.5516361
11
236.7158114
21
-142.4452034
0
LINE
8
0
10
236.7158114
20
-142.4452034
11
222.7902266
21
-152.1960029
0
LINE
8
0
10
222.7902266
20
-152.1960029
11
231.9674496
21
-165.3024356
0
LINE
8
0
10
218.7383827
20
-180.1156212
11
229.665772
21
-167.0928657
0
LINE
8
0
10
229.665772
20
-167.0928657
11
217.4090609
21
-156.808264
0
LINE
8
0
10
217.4090609
20
-156.808264
11
206.4816716
21
-169.8310195
0
LINE
8
0
10
206.4816716
20
-169.8310195
11
218.7383827
21
-180.1156212
0
LINE
8
0
10
267.3870112
20
-135.3345786
11
276.7839374
21
-131.9143772
0
LINE
8
0
10
276.7839374
20
-131.9143772
11
273.363736
21
-122.517451
0
LINE
8
0
10
273.363736
20
-122.517451
11
263.9668098
21
-125.9376524
0
LINE
8
0
10
263.9668098
20
-125.9376524
11
267.3870112
21
-135.3345786
0
LINE
8
0
10
122.797719
20
-131.9143772
11
132.1946452
21
-135.3345786
0
LINE
8
0
10
132.1946452
20
-135.3345786
11
135.6148466
21
-125.9376524
0
LINE
8
0
10
135.6148466
20
-125.9376524
11
126.2179204
21
-122.517451
0
LINE
8
0
10
126.2179204
20
-122.517451
11
122.797719
21
-131.9143772
0
CIRCLE
8
0
10
199.3458164
20
-139.8914446
40
17.5
0
ENDSEC
0
EOF